<svg width="1882" height="55" viewBox="0 0 1882 55" fill="none" xmlns="http://www.w3.org/2000/svg">
<rect width="307" height="55" rx="27.5" fill="#F3F6FF"/>
<path d="M25.7979 33V21.64H34.9979V33H32.9339V23.416H27.8619V33H25.7979ZM37.079 27.24C37.079 25.608 37.639 24.2373 38.759 23.128C39.8897 22.008 41.287 21.448 42.951 21.448C44.615 21.448 46.007 22.008 47.127 23.128C48.2577 24.2373 48.823 25.608 48.823 27.24C48.823 28.9147 48.2577 30.328 47.127 31.48C46.007 32.6213 44.615 33.192 42.951 33.192C41.287 33.192 39.8897 32.6213 38.759 31.48C37.639 30.328 37.079 28.9147 37.079 27.24ZM39.207 27.24C39.207 28.392 39.5697 29.3573 40.295 30.136C41.0203 30.9147 41.9057 31.304 42.951 31.304C43.9963 31.304 44.8817 30.9147 45.607 30.136C46.3323 29.3573 46.695 28.392 46.695 27.24C46.695 26.1413 46.3323 25.2187 45.607 24.472C44.8817 23.7147 43.9963 23.336 42.951 23.336C41.9057 23.336 41.0203 23.7147 40.295 24.472C39.5697 25.2187 39.207 26.1413 39.207 27.24ZM52.5483 31.224H57.0603V23.416H54.0203V24.264C54.0203 27.3147 53.5296 29.6347 52.5483 31.224ZM49.2683 31.224H50.4203C51.5189 29.56 52.0683 27.192 52.0683 24.12V21.64H59.1243V31.224H60.3883V35.24H58.5483V33H51.1723V35.24H49.2683V31.224ZM62.376 33V21.64H68.904V23.416H64.44V33H62.376ZM69.3915 27.24C69.3915 25.608 69.9515 24.2373 71.0715 23.128C72.2022 22.008 73.5995 21.448 75.2635 21.448C76.9275 21.448 78.3195 22.008 79.4395 23.128C80.5702 24.2373 81.1355 25.608 81.1355 27.24C81.1355 28.9147 80.5702 30.328 79.4395 31.48C78.3195 32.6213 76.9275 33.192 75.2635 33.192C73.5995 33.192 72.2022 32.6213 71.0715 31.48C69.9515 30.328 69.3915 28.9147 69.3915 27.24ZM71.5195 27.24C71.5195 28.392 71.8822 29.3573 72.6075 30.136C73.3328 30.9147 74.2182 31.304 75.2635 31.304C76.3088 31.304 77.1942 30.9147 77.9195 30.136C78.6448 29.3573 79.0075 28.392 79.0075 27.24C79.0075 26.1413 78.6448 25.2187 77.9195 24.472C77.1942 23.7147 76.3088 23.336 75.2635 23.336C74.2182 23.336 73.3328 23.7147 72.6075 24.472C71.8822 25.2187 71.5195 26.1413 71.5195 27.24ZM85.3895 33V23.416H81.6615V21.64H91.1655V23.416H87.4375V33H85.3895ZM91.704 27.24C91.704 25.608 92.264 24.2373 93.384 23.128C94.5147 22.008 95.912 21.448 97.576 21.448C99.24 21.448 100.632 22.008 101.752 23.128C102.883 24.2373 103.448 25.608 103.448 27.24C103.448 28.9147 102.883 30.328 101.752 31.48C100.632 32.6213 99.24 33.192 97.576 33.192C95.912 33.192 94.5147 32.6213 93.384 31.48C92.264 30.328 91.704 28.9147 91.704 27.24ZM93.832 27.24C93.832 28.392 94.1947 29.3573 94.92 30.136C95.6453 30.9147 96.5307 31.304 97.576 31.304C98.6213 31.304 99.5067 30.9147 100.232 30.136C100.957 29.3573 101.32 28.392 101.32 27.24C101.32 26.1413 100.957 25.2187 100.232 24.472C99.5067 23.7147 98.6213 23.336 97.576 23.336C96.5307 23.336 95.6453 23.7147 94.92 24.472C94.1947 25.2187 93.832 26.1413 93.832 27.24ZM105.532 33V21.64H109.58C110.636 21.64 111.484 21.9013 112.124 22.424C112.775 22.936 113.1 23.6507 113.1 24.568C113.1 25.1013 112.978 25.5813 112.732 26.008C112.487 26.4347 112.151 26.7653 111.724 27V27.032C112.322 27.2027 112.775 27.5387 113.084 28.04C113.404 28.5413 113.564 29.096 113.564 29.704C113.564 30.7813 113.191 31.6027 112.444 32.168C111.698 32.7227 110.764 33 109.644 33H105.532ZM107.596 26.28H109.596C110.034 26.28 110.375 26.1467 110.62 25.88C110.876 25.6027 111.004 25.2507 111.004 24.824C111.004 24.408 110.876 24.072 110.62 23.816C110.375 23.5493 110.023 23.416 109.564 23.416H107.596V26.28ZM107.596 31.224H109.804C110.316 31.224 110.716 31.0747 111.004 30.776C111.303 30.4667 111.452 30.0667 111.452 29.576C111.452 29.096 111.303 28.7067 111.004 28.408C110.716 28.0987 110.316 27.944 109.804 27.944H107.596V31.224ZM115.657 33V21.64H117.721V26.264H119.193L121.865 21.64H124.105L120.889 27.048V27.08L124.297 33H121.961L119.193 28.04H117.721V33H115.657ZM124.612 33L128.596 21.64H130.772L134.756 33H132.644L131.668 30.088H127.684L126.724 33H124.612ZM128.196 28.408H131.156L130.148 25.368L129.7 23.608H129.668C129.498 24.3547 129.348 24.9413 129.22 25.368L128.196 28.408ZM140.267 33V21.64H142.331V26.264H143.803L146.475 21.64H148.715L145.499 27.048V27.08L148.907 33H146.571L143.803 28.04H142.331V33H140.267ZM153.222 33L157.206 21.64H159.382L163.366 33H161.254L160.278 30.088H156.294L155.334 33H153.222ZM156.806 28.408H159.766L158.758 25.368L158.31 23.608H158.278C158.107 24.3547 157.958 24.9413 157.83 25.368L156.806 28.408ZM164.876 33V21.64H166.94V26.264H168.412L171.084 21.64H173.324L170.108 27.048V27.08L173.516 33H171.18L168.412 28.04H166.94V33H164.876ZM175.079 33V21.64H177.143V26.264H178.615L181.287 21.64H183.527L180.311 27.048V27.08L183.719 33H181.383L178.615 28.04H177.143V33H175.079ZM185.282 33V21.64H189.666C190.733 21.64 191.602 21.9813 192.274 22.664C192.946 23.3467 193.282 24.2373 193.282 25.336C193.282 26.4347 192.946 27.336 192.274 28.04C191.602 28.7333 190.733 29.08 189.666 29.08H187.346V33H185.282ZM187.346 27.288H189.282C189.88 27.288 190.344 27.112 190.674 26.76C191.016 26.408 191.186 25.9333 191.186 25.336C191.186 24.7493 191.016 24.2853 190.674 23.944C190.344 23.592 189.89 23.416 189.314 23.416H187.346V27.288ZM195.079 33V21.64H201.879V23.416H197.143V26.392H200.967V28.168H197.143V31.224H202.135V33H195.079ZM206.205 31.224H210.717V23.416H207.677V24.264C207.677 27.3147 207.186 29.6347 206.205 31.224ZM202.925 31.224H204.077C205.175 29.56 205.725 27.192 205.725 24.12V21.64H212.781V31.224H214.045V35.24H212.205V33H204.829V35.24H202.925V31.224ZM216.032 33V21.64H218.096V28.2L217.984 29.96H218.016C218.379 29.224 218.699 28.632 218.976 28.184L223.264 21.64H225.312V33H223.264V26.456L223.376 24.696H223.344C222.992 25.4213 222.678 26.008 222.4 26.456L218.08 33H216.032ZM230.655 33V23.416H226.927V21.64H236.431V23.416H232.703V33H230.655ZM235.862 33L239.846 21.64H242.022L246.006 33H243.894L242.918 30.088H238.934L237.974 33H235.862ZM239.446 28.408H242.406L241.398 25.368L240.95 23.608H240.918C240.748 24.3547 240.598 24.9413 240.47 25.368L239.446 28.408ZM247.517 33V21.64H249.581V31.224H254.493V21.64H256.557V31.224H257.901V35.24H256.061V33H247.517ZM259.86 33V21.64H261.924V28.2L261.812 29.96H261.844C262.207 29.224 262.527 28.632 262.804 28.184L267.092 21.64H269.14V33H267.092V26.456L267.204 24.696H267.172C266.82 25.4213 266.506 26.008 266.228 26.456L261.908 33H259.86ZM271.907 33V21.64H273.971V28.2L273.859 29.96H273.891C274.254 29.224 274.574 28.632 274.851 28.184L279.139 21.64H281.187V33H279.139V26.456L279.251 24.696H279.219C278.867 25.4213 278.553 26.008 278.275 26.456L273.955 33H271.907Z" fill="#005DFF"/>
<rect x="317" width="248" height="55" rx="27.5" fill="#F3F6FF"/>
<path d="M342.853 33V21.64H344.917V26.264H346.389L349.061 21.64H351.301L348.085 27.048V27.08L351.493 33H349.157L346.389 28.04H344.917V33H342.853ZM351.904 31.24C352.757 31.1227 353.376 30.5573 353.76 29.544C354.154 28.52 354.352 26.92 354.352 24.744V21.64H361.376V33H359.312V23.416H356.32V24.776C356.32 27.5707 355.973 29.6507 355.28 31.016C354.586 32.3707 353.461 33.0747 351.904 33.128V31.24ZM364.134 33V21.64H366.198V28.2L366.086 29.96H366.118C366.48 29.224 366.8 28.632 367.078 28.184L371.366 21.64H373.414V33H371.366V26.456L371.478 24.696H371.446C371.094 25.4213 370.779 26.008 370.502 26.456L366.182 33H364.134ZM376.181 33V21.64H378.245V26.456H383.445V21.64H385.493V33H383.445V28.232H378.245V33H376.181ZM388.243 33V21.64H390.307V28.2L390.195 29.96H390.227C390.59 29.224 390.91 28.632 391.187 28.184L395.475 21.64H397.523V33H395.475V26.456L395.587 24.696H395.555C395.203 25.4213 394.889 26.008 394.611 26.456L390.291 33H388.243ZM403.122 28.776C401.959 28.776 401.09 28.4827 400.514 27.896C399.938 27.2987 399.65 26.456 399.65 25.368V21.64H401.746V24.904C401.746 26.2373 402.381 26.904 403.65 26.904C404.514 26.904 405.293 26.68 405.986 26.232V21.64H408.082V33H405.986V28.6L406.018 28.072H405.986C405.069 28.5413 404.114 28.776 403.122 28.776ZM410.853 33V21.64H417.653V23.416H412.917V26.392H416.741V28.168H412.917V31.224H417.909V33H410.853ZM419.103 27.272C419.103 25.608 419.652 24.2213 420.751 23.112C421.849 22.0027 423.247 21.448 424.943 21.448C426.671 21.448 428.068 21.9653 429.135 23L428.143 24.536C427.727 24.184 427.236 23.896 426.671 23.672C426.116 23.448 425.572 23.336 425.039 23.336C423.844 23.336 422.911 23.7093 422.239 24.456C421.567 25.2027 421.231 26.1307 421.231 27.24C421.231 28.36 421.572 29.32 422.255 30.12C422.937 30.9093 423.871 31.304 425.055 31.304C426.271 31.304 427.369 30.824 428.351 29.864L429.439 31.352C428.233 32.5787 426.745 33.192 424.975 33.192C423.215 33.192 421.796 32.632 420.719 31.512C419.641 30.392 419.103 28.9787 419.103 27.272ZM431.212 33V21.64H433.276V26.264H434.748L437.42 21.64H439.66L436.444 27.048V27.08L439.852 33H437.516L434.748 28.04H433.276V33H431.212ZM441.415 33V21.64H443.479V28.2L443.367 29.96H443.399C443.762 29.224 444.082 28.632 444.359 28.184L448.647 21.64H450.695V33H448.647V26.456L448.759 24.696H448.727C448.375 25.4213 448.06 26.008 447.783 26.456L443.463 33H441.415ZM453.462 33V21.64H460.262V23.416H455.526V26.392H459.35V28.168H455.526V31.224H460.518V33H453.462ZM466.571 33V21.64H470.955C472.022 21.64 472.891 21.9813 473.563 22.664C474.235 23.3467 474.571 24.2373 474.571 25.336C474.571 26.4347 474.235 27.336 473.563 28.04C472.891 28.7333 472.022 29.08 470.955 29.08H468.635V33H466.571ZM468.635 27.288H470.571C471.169 27.288 471.633 27.112 471.963 26.76C472.305 26.408 472.475 25.9333 472.475 25.336C472.475 24.7493 472.305 24.2853 471.963 23.944C471.633 23.592 471.179 23.416 470.603 23.416H468.635V27.288ZM474.542 33L478.526 21.64H480.702L484.686 33H482.574L481.598 30.088H477.614L476.654 33H474.542ZM478.126 28.408H481.086L480.078 25.368L479.63 23.608H479.598C479.427 24.3547 479.278 24.9413 479.15 25.368L478.126 28.408ZM485.172 31.576L486.292 30.2C486.602 30.5307 486.986 30.808 487.444 31.032C487.903 31.256 488.372 31.368 488.852 31.368C489.471 31.368 489.962 31.2133 490.324 30.904C490.687 30.5947 490.868 30.168 490.868 29.624C490.868 29.1333 490.703 28.7493 490.372 28.472C490.052 28.184 489.615 28.04 489.06 28.04H487.668V26.376H488.788C489.3 26.376 489.722 26.2267 490.052 25.928C490.383 25.6293 490.548 25.256 490.548 24.808C490.548 24.3493 490.399 23.976 490.1 23.688C489.802 23.3893 489.37 23.24 488.804 23.24C487.94 23.24 487.119 23.56 486.34 24.2L485.508 22.696C486.511 21.864 487.727 21.448 489.156 21.448C490.127 21.448 490.948 21.7253 491.62 22.28C492.303 22.8347 492.644 23.592 492.644 24.552C492.644 25.672 492.122 26.5147 491.076 27.08V27.112C491.663 27.2933 492.127 27.6133 492.468 28.072C492.81 28.5307 492.98 29.0907 492.98 29.752C492.98 30.7973 492.602 31.6347 491.844 32.264C491.098 32.8827 490.164 33.192 489.044 33.192C488.319 33.192 487.61 33.0533 486.916 32.776C486.234 32.488 485.652 32.088 485.172 31.576ZM495.071 33V21.64H502.047V23.416H497.135V26.04H499.407C500.463 26.04 501.317 26.36 501.967 27C502.629 27.6293 502.959 28.4773 502.959 29.544C502.959 30.568 502.634 31.4 501.983 32.04C501.333 32.68 500.49 33 499.455 33H495.071ZM497.135 31.224H499.087C499.653 31.224 500.09 31.0747 500.399 30.776C500.709 30.4773 500.863 30.0667 500.863 29.544C500.863 29.0213 500.703 28.6053 500.383 28.296C500.063 27.976 499.621 27.816 499.055 27.816H497.135V31.224ZM504.259 27.24C504.259 25.608 504.819 24.2373 505.939 23.128C507.069 22.008 508.467 21.448 510.131 21.448C511.795 21.448 513.187 22.008 514.307 23.128C515.437 24.2373 516.003 25.608 516.003 27.24C516.003 28.9147 515.437 30.328 514.307 31.48C513.187 32.6213 511.795 33.192 510.131 33.192C508.467 33.192 507.069 32.6213 505.939 31.48C504.819 30.328 504.259 28.9147 504.259 27.24ZM506.387 27.24C506.387 28.392 506.749 29.3573 507.475 30.136C508.2 30.9147 509.085 31.304 510.131 31.304C511.176 31.304 512.061 30.9147 512.787 30.136C513.512 29.3573 513.875 28.392 513.875 27.24C513.875 26.1413 513.512 25.2187 512.787 24.472C512.061 23.7147 511.176 23.336 510.131 23.336C509.085 23.336 508.2 23.7147 507.475 24.472C506.749 25.2187 506.387 26.1413 506.387 27.24ZM518.087 33V21.64H522.471C523.538 21.64 524.407 21.9813 525.079 22.664C525.751 23.3467 526.087 24.2373 526.087 25.336C526.087 26.4347 525.751 27.336 525.079 28.04C524.407 28.7333 523.538 29.08 522.471 29.08H520.151V33H518.087ZM520.151 27.288H522.087C522.684 27.288 523.148 27.112 523.479 26.76C523.82 26.408 523.991 25.9333 523.991 25.336C523.991 24.7493 523.82 24.2853 523.479 23.944C523.148 23.592 522.695 23.416 522.119 23.416H520.151V27.288ZM537.084 33V21.64H539.132V33H537.084ZM527.884 33V21.64H529.948V25.624H532.06C533.116 25.624 533.969 25.9653 534.62 26.648C535.281 27.32 535.612 28.216 535.612 29.336C535.612 30.424 535.286 31.3093 534.636 31.992C533.985 32.664 533.142 33 532.108 33H527.884ZM529.948 31.224H531.74C532.305 31.224 532.742 31.0587 533.052 30.728C533.361 30.3867 533.516 29.9227 533.516 29.336C533.516 28.7493 533.356 28.28 533.036 27.928C532.716 27.576 532.273 27.4 531.708 27.4H529.948V31.224Z" fill="#666666"/>
<rect x="575" width="212" height="55" rx="27.5" fill="#F3F6FF"/>
<path d="M600.603 33V21.64H609.803V33H607.739V23.416H602.667V33H600.603ZM611.884 27.24C611.884 25.608 612.444 24.2373 613.564 23.128C614.694 22.008 616.092 21.448 617.756 21.448C619.42 21.448 620.812 22.008 621.932 23.128C623.062 24.2373 623.628 25.608 623.628 27.24C623.628 28.9147 623.062 30.328 621.932 31.48C620.812 32.6213 619.42 33.192 617.756 33.192C616.092 33.192 614.694 32.6213 613.564 31.48C612.444 30.328 611.884 28.9147 611.884 27.24ZM614.012 27.24C614.012 28.392 614.374 29.3573 615.1 30.136C615.825 30.9147 616.71 31.304 617.756 31.304C618.801 31.304 619.686 30.9147 620.412 30.136C621.137 29.3573 621.5 28.392 621.5 27.24C621.5 26.1413 621.137 25.2187 620.412 24.472C619.686 23.7147 618.801 23.336 617.756 23.336C616.71 23.336 615.825 23.7147 615.1 24.472C614.374 25.2187 614.012 26.1413 614.012 27.24ZM625.28 33L626.208 21.64H628.4L630.64 27.256L631.2 28.92H631.232C631.435 28.2587 631.621 27.704 631.792 27.256L634.032 21.64H636.224L637.152 33H635.088L634.624 26.648C634.603 26.424 634.592 26.168 634.592 25.88C634.592 25.5813 634.597 25.3413 634.608 25.16V24.888H634.576C634.331 25.624 634.123 26.2107 633.952 26.648L632.112 31.048H630.32L628.48 26.648L627.856 24.872H627.824C627.856 25.5547 627.851 26.1467 627.808 26.648L627.344 33H625.28ZM638.806 27.24C638.806 25.608 639.366 24.2373 640.486 23.128C641.616 22.008 643.014 21.448 644.678 21.448C646.342 21.448 647.734 22.008 648.854 23.128C649.984 24.2373 650.55 25.608 650.55 27.24C650.55 28.9147 649.984 30.328 648.854 31.48C647.734 32.6213 646.342 33.192 644.678 33.192C643.014 33.192 641.616 32.6213 640.486 31.48C639.366 30.328 638.806 28.9147 638.806 27.24ZM640.934 27.24C640.934 28.392 641.296 29.3573 642.022 30.136C642.747 30.9147 643.632 31.304 644.678 31.304C645.723 31.304 646.608 30.9147 647.334 30.136C648.059 29.3573 648.422 28.392 648.422 27.24C648.422 26.1413 648.059 25.2187 647.334 24.472C646.608 23.7147 645.723 23.336 644.678 23.336C643.632 23.336 642.747 23.7147 642.022 24.472C641.296 25.2187 640.934 26.1413 640.934 27.24ZM652.634 33V21.64H654.698V31.224H658.362V21.64H660.426V31.224H664.09V21.64H666.138V31.224H667.546V35.24H665.69V33H652.634ZM669.478 33V21.64H671.542V25.624H673.766C674.811 25.624 675.664 25.9653 676.326 26.648C676.987 27.32 677.318 28.216 677.318 29.336C677.318 30.424 676.992 31.3093 676.342 31.992C675.691 32.664 674.843 33 673.798 33H669.478ZM671.542 31.224H673.43C673.995 31.224 674.432 31.0587 674.742 30.728C675.062 30.3867 675.222 29.9227 675.222 29.336C675.222 28.7493 675.056 28.28 674.726 27.928C674.406 27.576 673.963 27.4 673.398 27.4H671.542V31.224ZM683.118 33V21.64H685.182V26.264H686.654L689.326 21.64H691.566L688.35 27.048V27.08L691.758 33H689.422L686.654 28.04H685.182V33H683.118ZM693.017 32.408L693.929 30.856C694.409 31.2293 694.836 31.416 695.209 31.416C695.711 31.416 696.089 31.0853 696.345 30.424L691.897 21.64H694.169L696.585 26.712L697.225 28.216H697.257C697.396 27.7147 697.551 27.2187 697.721 26.728L699.545 21.64H701.705L698.201 30.616C698.063 30.968 697.919 31.2773 697.769 31.544C697.62 31.8107 697.428 32.0773 697.193 32.344C696.959 32.6107 696.681 32.8187 696.361 32.968C696.041 33.1173 695.684 33.192 695.289 33.192C694.521 33.192 693.764 32.9307 693.017 32.408ZM703.118 33V21.64H707.502C708.569 21.64 709.438 21.9813 710.11 22.664C710.782 23.3467 711.118 24.2373 711.118 25.336C711.118 26.4347 710.782 27.336 710.11 28.04C709.438 28.7333 708.569 29.08 707.502 29.08H705.182V33H703.118ZM705.182 27.288H707.118C707.716 27.288 708.18 27.112 708.51 26.76C708.852 26.408 709.022 25.9333 709.022 25.336C709.022 24.7493 708.852 24.2853 708.51 23.944C708.18 23.592 707.726 23.416 707.15 23.416H705.182V27.288ZM711.089 33L715.073 21.64H717.249L721.233 33H719.121L718.145 30.088H714.161L713.201 33H711.089ZM714.673 28.408H717.633L716.625 25.368L716.177 23.608H716.145C715.974 24.3547 715.825 24.9413 715.697 25.368L714.673 28.408ZM724.382 33V23.416H720.654V21.64H730.158V23.416H726.43V33H724.382ZM730.696 27.24C730.696 25.608 731.256 24.2373 732.376 23.128C733.507 22.008 734.904 21.448 736.568 21.448C738.232 21.448 739.624 22.008 740.744 23.128C741.875 24.2373 742.44 25.608 742.44 27.24C742.44 28.9147 741.875 30.328 740.744 31.48C739.624 32.6213 738.232 33.192 736.568 33.192C734.904 33.192 733.507 32.6213 732.376 31.48C731.256 30.328 730.696 28.9147 730.696 27.24ZM732.824 27.24C732.824 28.392 733.187 29.3573 733.912 30.136C734.638 30.9147 735.523 31.304 736.568 31.304C737.614 31.304 738.499 30.9147 739.224 30.136C739.95 29.3573 740.312 28.392 740.312 27.24C740.312 26.1413 739.95 25.2187 739.224 24.472C738.499 23.7147 737.614 23.336 736.568 23.336C735.523 23.336 734.638 23.7147 733.912 24.472C733.187 25.2187 732.824 26.1413 732.824 27.24ZM744.524 33V21.64H748.908C749.975 21.64 750.844 21.9813 751.516 22.664C752.188 23.3467 752.524 24.2373 752.524 25.336C752.524 26.4347 752.188 27.336 751.516 28.04C750.844 28.7333 749.975 29.08 748.908 29.08H746.588V33H744.524ZM746.588 27.288H748.524C749.122 27.288 749.586 27.112 749.916 26.76C750.258 26.408 750.428 25.9333 750.428 25.336C750.428 24.7493 750.258 24.2853 749.916 23.944C749.586 23.592 749.132 23.416 748.556 23.416H746.588V27.288ZM752.495 33L756.479 21.64H758.655L762.639 33H760.527L759.551 30.088H755.567L754.607 33H752.495ZM756.079 28.408H759.039L758.031 25.368L757.583 23.608H757.551C757.381 24.3547 757.231 24.9413 757.103 25.368L756.079 28.408Z" fill="#005DFF"/>
<rect x="797" width="122" height="55" rx="27.5" fill="#F3F6FF"/>
<path d="M824.47 31.224H828.982V23.416H825.942V24.264C825.942 27.3147 825.451 29.6347 824.47 31.224ZM821.19 31.224H822.342C823.441 29.56 823.99 27.192 823.99 24.12V21.64H831.046V31.224H832.31V35.24H830.47V33H823.094V35.24H821.19V31.224ZM834.298 33V21.64H836.362V28.2L836.25 29.96H836.282C836.645 29.224 836.965 28.632 837.242 28.184L841.53 21.64H843.578V33H841.53V26.456L841.642 24.696H841.61C841.258 25.4213 840.943 26.008 840.666 26.456L836.346 33H834.298ZM846.345 33V21.64H855.545V33H853.481V23.416H848.409V33H846.345ZM857.146 31.24C857.999 31.1227 858.618 30.5573 859.002 29.544C859.397 28.52 859.594 26.92 859.594 24.744V21.64H866.618V33H864.554V23.416H861.562V24.776C861.562 27.5707 861.215 29.6507 860.522 31.016C859.829 32.3707 858.703 33.0747 857.146 33.128V31.24ZM868.704 27.24C868.704 25.608 869.264 24.2373 870.384 23.128C871.515 22.008 872.912 21.448 874.576 21.448C876.24 21.448 877.632 22.008 878.752 23.128C879.883 24.2373 880.448 25.608 880.448 27.24C880.448 28.9147 879.883 30.328 878.752 31.48C877.632 32.6213 876.24 33.192 874.576 33.192C872.912 33.192 871.515 32.6213 870.384 31.48C869.264 30.328 868.704 28.9147 868.704 27.24ZM870.832 27.24C870.832 28.392 871.195 29.3573 871.92 30.136C872.645 30.9147 873.531 31.304 874.576 31.304C875.621 31.304 876.507 30.9147 877.232 30.136C877.957 29.3573 878.32 28.392 878.32 27.24C878.32 26.1413 877.957 25.2187 877.232 24.472C876.507 23.7147 875.621 23.336 874.576 23.336C873.531 23.336 872.645 23.7147 871.92 24.472C871.195 25.2187 870.832 26.1413 870.832 27.24ZM882.1 33L883.028 21.64H885.22L887.46 27.256L888.02 28.92H888.052C888.255 28.2587 888.442 27.704 888.612 27.256L890.852 21.64H893.044L893.972 33H891.908L891.444 26.648C891.423 26.424 891.412 26.168 891.412 25.88C891.412 25.5813 891.418 25.3413 891.428 25.16V24.888H891.396C891.151 25.624 890.943 26.2107 890.772 26.648L888.932 31.048H887.14L885.3 26.648L884.676 24.872H884.644C884.676 25.5547 884.671 26.1467 884.628 26.648L884.164 33H882.1Z" fill="#666666"/>
<rect x="929" width="297" height="55" rx="27.5" fill="#F3F6FF"/>
<path d="M954.696 33V21.64H959.08C960.147 21.64 961.016 21.9813 961.688 22.664C962.36 23.3467 962.696 24.2373 962.696 25.336C962.696 26.4347 962.36 27.336 961.688 28.04C961.016 28.7333 960.147 29.08 959.08 29.08H956.76V33H954.696ZM956.76 27.288H958.696C959.294 27.288 959.758 27.112 960.088 26.76C960.43 26.408 960.6 25.9333 960.6 25.336C960.6 24.7493 960.43 24.2853 960.088 23.944C959.758 23.592 959.304 23.416 958.728 23.416H956.76V27.288ZM964.493 33V21.64H971.293V23.416H966.557V26.392H970.381V28.168H966.557V31.224H971.549V33H964.493ZM973.603 33V21.64H975.667V26.264H977.139L979.811 21.64H982.051L978.835 27.048V27.08L982.243 33H979.907L977.139 28.04H975.667V33H973.603ZM982.837 27.24C982.837 25.608 983.397 24.2373 984.517 23.128C985.647 22.008 987.045 21.448 988.709 21.448C990.373 21.448 991.765 22.008 992.885 23.128C994.015 24.2373 994.581 25.608 994.581 27.24C994.581 28.9147 994.015 30.328 992.885 31.48C991.765 32.6213 990.373 33.192 988.709 33.192C987.045 33.192 985.647 32.6213 984.517 31.48C983.397 30.328 982.837 28.9147 982.837 27.24ZM984.965 27.24C984.965 28.392 985.327 29.3573 986.053 30.136C986.778 30.9147 987.663 31.304 988.709 31.304C989.754 31.304 990.639 30.9147 991.365 30.136C992.09 29.3573 992.453 28.392 992.453 27.24C992.453 26.1413 992.09 25.2187 991.365 24.472C990.639 23.7147 989.754 23.336 988.709 23.336C987.663 23.336 986.778 23.7147 986.053 24.472C985.327 25.2187 984.965 26.1413 984.965 27.24ZM996.233 33L997.161 21.64H999.353L1001.59 27.256L1002.15 28.92H1002.19C1002.39 28.2587 1002.57 27.704 1002.75 27.256L1004.99 21.64H1007.18L1008.11 33H1006.04L1005.58 26.648C1005.56 26.424 1005.55 26.168 1005.55 25.88C1005.55 25.5813 1005.55 25.3413 1005.56 25.16V24.888H1005.53C1005.28 25.624 1005.08 26.2107 1004.91 26.648L1003.07 31.048H1001.27L999.433 26.648L998.809 24.872H998.777C998.809 25.5547 998.804 26.1467 998.761 26.648L998.297 33H996.233ZM1010.43 33V21.64H1017.23V23.416H1012.49V26.392H1016.32V28.168H1012.49V31.224H1017.49V33H1010.43ZM1019.54 33V21.64H1021.6V26.456H1026.8V21.64H1028.85V33H1026.8V28.232H1021.6V33H1019.54ZM1033.62 31.224H1038.13V23.416H1035.09V24.264C1035.09 27.3147 1034.6 29.6347 1033.62 31.224ZM1030.34 31.224H1031.49C1032.59 29.56 1033.14 27.192 1033.14 24.12V21.64H1040.19V31.224H1041.46V35.24H1039.62V33H1032.24V35.24H1030.34V31.224ZM1042.2 33L1046.18 21.64H1048.36L1052.34 33H1050.23L1049.25 30.088H1045.27L1044.31 33H1042.2ZM1045.78 28.408H1048.74L1047.73 25.368L1047.29 23.608H1047.25C1047.08 24.3547 1046.93 24.9413 1046.81 25.368L1045.78 28.408ZM1055.49 33V23.416H1051.76V21.64H1061.27V23.416H1057.54V33H1055.49ZM1062.88 33V21.64H1069.68V23.416H1064.95V26.392H1068.77V28.168H1064.95V31.224H1069.94V33H1062.88ZM1070.84 31.24C1071.69 31.1227 1072.31 30.5573 1072.7 29.544C1073.09 28.52 1073.29 26.92 1073.29 24.744V21.64H1080.31V33H1078.25V23.416H1075.26V24.776C1075.26 27.5707 1074.91 29.6507 1074.22 31.016C1073.52 32.3707 1072.4 33.0747 1070.84 33.128V31.24ZM1083.07 33V21.64H1085.14V25.624H1087.36C1088.4 25.624 1089.26 25.9653 1089.92 26.648C1090.58 27.32 1090.91 28.216 1090.91 29.336C1090.91 30.424 1090.59 31.3093 1089.94 31.992C1089.28 32.664 1088.44 33 1087.39 33H1083.07ZM1085.14 31.224H1087.02C1087.59 31.224 1088.03 31.0587 1088.34 30.728C1088.66 30.3867 1088.82 29.9227 1088.82 29.336C1088.82 28.7493 1088.65 28.28 1088.32 27.928C1088 27.576 1087.56 27.4 1086.99 27.4H1085.14V31.224ZM1092.71 33V21.64H1094.78V26.456H1099.98V21.64H1102.02V33H1099.98V28.232H1094.78V33H1092.71ZM1104.1 27.24C1104.1 25.608 1104.66 24.2373 1105.78 23.128C1106.91 22.008 1108.31 21.448 1109.97 21.448C1111.64 21.448 1113.03 22.008 1114.15 23.128C1115.28 24.2373 1115.85 25.608 1115.85 27.24C1115.85 28.9147 1115.28 30.328 1114.15 31.48C1113.03 32.6213 1111.64 33.192 1109.97 33.192C1108.31 33.192 1106.91 32.6213 1105.78 31.48C1104.66 30.328 1104.1 28.9147 1104.1 27.24ZM1106.23 27.24C1106.23 28.392 1106.59 29.3573 1107.32 30.136C1108.04 30.9147 1108.93 31.304 1109.97 31.304C1111.02 31.304 1111.91 30.9147 1112.63 30.136C1113.36 29.3573 1113.72 28.392 1113.72 27.24C1113.72 26.1413 1113.36 25.2187 1112.63 24.472C1111.91 23.7147 1111.02 23.336 1109.97 23.336C1108.93 23.336 1108.04 23.7147 1107.32 24.472C1106.59 25.2187 1106.23 26.1413 1106.23 27.24ZM1117.93 33V21.64H1124.73V23.416H1119.99V26.392H1123.82V28.168H1119.99V31.224H1124.99V33H1117.93ZM1131.04 33V21.64H1140.24V33H1138.18V23.416H1133.1V33H1131.04ZM1142.99 33V21.64H1145.06V28.2L1144.95 29.96H1144.98C1145.34 29.224 1145.66 28.632 1145.94 28.184L1150.23 21.64H1152.27V33H1150.23V26.456L1150.34 24.696H1150.31C1149.95 25.4213 1149.64 26.008 1149.36 26.456L1145.04 33H1142.99ZM1154.38 27.272C1154.38 25.608 1154.93 24.2213 1156.03 23.112C1157.13 22.0027 1158.53 21.448 1160.22 21.448C1161.95 21.448 1163.35 21.9653 1164.42 23L1163.42 24.536C1163.01 24.184 1162.52 23.896 1161.95 23.672C1161.4 23.448 1160.85 23.336 1160.32 23.336C1159.13 23.336 1158.19 23.7093 1157.52 24.456C1156.85 25.2027 1156.51 26.1307 1156.51 27.24C1156.51 28.36 1156.85 29.32 1157.54 30.12C1158.22 30.9093 1159.15 31.304 1160.34 31.304C1161.55 31.304 1162.65 30.824 1163.63 29.864L1164.72 31.352C1163.51 32.5787 1162.03 33.192 1160.26 33.192C1158.5 33.192 1157.08 32.632 1156 31.512C1154.92 30.392 1154.38 28.9787 1154.38 27.272ZM1166.49 33V21.64H1168.56V25.624H1170.78C1171.83 25.624 1172.68 25.9653 1173.34 26.648C1174 27.32 1174.33 28.216 1174.33 29.336C1174.33 30.424 1174.01 31.3093 1173.36 31.992C1172.71 32.664 1171.86 33 1170.81 33H1166.49ZM1168.56 31.224H1170.45C1171.01 31.224 1171.45 31.0587 1171.76 30.728C1172.08 30.3867 1172.24 29.9227 1172.24 29.336C1172.24 28.7493 1172.07 28.28 1171.74 27.928C1171.42 27.576 1170.98 27.4 1170.41 27.4H1168.56V31.224ZM1175.7 33L1176.63 21.64H1178.82L1181.06 27.256L1181.62 28.92H1181.65C1181.86 28.2587 1182.04 27.704 1182.21 27.256L1184.45 21.64H1186.65L1187.57 33H1185.51L1185.05 26.648C1185.02 26.424 1185.01 26.168 1185.01 25.88C1185.01 25.5813 1185.02 25.3413 1185.03 25.16V24.888H1185C1184.75 25.624 1184.54 26.2107 1184.37 26.648L1182.53 31.048H1180.74L1178.9 26.648L1178.28 24.872H1178.25C1178.28 25.5547 1178.27 26.1467 1178.23 26.648L1177.77 33H1175.7ZM1189.23 27.24C1189.23 25.608 1189.79 24.2373 1190.91 23.128C1192.04 22.008 1193.44 21.448 1195.1 21.448C1196.76 21.448 1198.16 22.008 1199.28 23.128C1200.41 24.2373 1200.97 25.608 1200.97 27.24C1200.97 28.9147 1200.41 30.328 1199.28 31.48C1198.16 32.6213 1196.76 33.192 1195.1 33.192C1193.44 33.192 1192.04 32.6213 1190.91 31.48C1189.79 30.328 1189.23 28.9147 1189.23 27.24ZM1191.36 27.24C1191.36 28.392 1191.72 29.3573 1192.44 30.136C1193.17 30.9147 1194.05 31.304 1195.1 31.304C1196.14 31.304 1197.03 30.9147 1197.76 30.136C1198.48 29.3573 1198.84 28.392 1198.84 27.24C1198.84 26.1413 1198.48 25.2187 1197.76 24.472C1197.03 23.7147 1196.14 23.336 1195.1 23.336C1194.05 23.336 1193.17 23.7147 1192.44 24.472C1191.72 25.2187 1191.36 26.1413 1191.36 27.24Z" fill="#005DFF"/>
<rect x="1236" width="308" height="55" rx="27.5" fill="#F3F6FF"/>
<path d="M1261.72 33V21.64H1263.78V26.264H1265.26L1267.93 21.64H1270.17L1266.95 27.048V27.08L1270.36 33H1268.02L1265.26 28.04H1263.78V33H1261.72ZM1270.77 31.24C1271.62 31.1227 1272.24 30.5573 1272.63 29.544C1273.02 28.52 1273.22 26.92 1273.22 24.744V21.64H1280.24V33H1278.18V23.416H1275.19V24.776C1275.19 27.5707 1274.84 29.6507 1274.15 31.016C1273.45 32.3707 1272.33 33.0747 1270.77 33.128V31.24ZM1283 33V21.64H1285.07V28.2L1284.95 29.96H1284.99C1285.35 29.224 1285.67 28.632 1285.95 28.184L1290.23 21.64H1292.28V33H1290.23V26.456L1290.35 24.696H1290.31C1289.96 25.4213 1289.65 26.008 1289.37 26.456L1285.05 33H1283ZM1295.05 33V21.64H1297.11V26.456H1302.31V21.64H1304.36V33H1302.31V28.232H1297.11V33H1295.05ZM1307.11 33V21.64H1309.17V28.2L1309.06 29.96H1309.09C1309.46 29.224 1309.78 28.632 1310.05 28.184L1314.34 21.64H1316.39V33H1314.34V26.456L1314.45 24.696H1314.42C1314.07 25.4213 1313.76 26.008 1313.48 26.456L1309.16 33H1307.11ZM1321.99 28.776C1320.83 28.776 1319.96 28.4827 1319.38 27.896C1318.81 27.2987 1318.52 26.456 1318.52 25.368V21.64H1320.61V24.904C1320.61 26.2373 1321.25 26.904 1322.52 26.904C1323.38 26.904 1324.16 26.68 1324.85 26.232V21.64H1326.95V33H1324.85V28.6L1324.89 28.072H1324.85C1323.94 28.5413 1322.98 28.776 1321.99 28.776ZM1329.72 33V21.64H1336.52V23.416H1331.78V26.392H1335.61V28.168H1331.78V31.224H1336.78V33H1329.72ZM1337.97 27.272C1337.97 25.608 1338.52 24.2213 1339.62 23.112C1340.72 22.0027 1342.11 21.448 1343.81 21.448C1345.54 21.448 1346.94 21.9653 1348 23L1347.01 24.536C1346.59 24.184 1346.1 23.896 1345.54 23.672C1344.98 23.448 1344.44 23.336 1343.91 23.336C1342.71 23.336 1341.78 23.7093 1341.11 24.456C1340.43 25.2027 1340.1 26.1307 1340.1 27.24C1340.1 28.36 1340.44 29.32 1341.12 30.12C1341.8 30.9093 1342.74 31.304 1343.92 31.304C1345.14 31.304 1346.24 30.824 1347.22 29.864L1348.31 31.352C1347.1 32.5787 1345.61 33.192 1343.84 33.192C1342.08 33.192 1340.66 32.632 1339.59 31.512C1338.51 30.392 1337.97 28.9787 1337.97 27.272ZM1350.08 33V21.64H1352.14V26.264H1353.62L1356.29 21.64H1358.53L1355.31 27.048V27.08L1358.72 33H1356.38L1353.62 28.04H1352.14V33H1350.08ZM1360.28 33V21.64H1362.35V28.2L1362.23 29.96H1362.27C1362.63 29.224 1362.95 28.632 1363.23 28.184L1367.51 21.64H1369.56V33H1367.51V26.456L1367.63 24.696H1367.59C1367.24 25.4213 1366.93 26.008 1366.65 26.456L1362.33 33H1360.28ZM1372.33 33V21.64H1379.13V23.416H1374.39V26.392H1378.22V28.168H1374.39V31.224H1379.39V33H1372.33ZM1385.44 33V21.64H1389.82C1390.89 21.64 1391.76 21.9813 1392.43 22.664C1393.1 23.3467 1393.44 24.2373 1393.44 25.336C1393.44 26.4347 1393.1 27.336 1392.43 28.04C1391.76 28.7333 1390.89 29.08 1389.82 29.08H1387.5V33H1385.44ZM1387.5 27.288H1389.44C1390.04 27.288 1390.5 27.112 1390.83 26.76C1391.17 26.408 1391.34 25.9333 1391.34 25.336C1391.34 24.7493 1391.17 24.2853 1390.83 23.944C1390.5 23.592 1390.05 23.416 1389.47 23.416H1387.5V27.288ZM1395.24 33V21.64H1402.04V23.416H1397.3V26.392H1401.12V28.168H1397.3V31.224H1402.29V33H1395.24ZM1404.34 33V21.64H1406.41V26.264H1407.88L1410.55 21.64H1412.79L1409.58 27.048V27.08L1412.98 33H1410.65L1407.88 28.04H1406.41V33H1404.34ZM1413.58 27.24C1413.58 25.608 1414.14 24.2373 1415.26 23.128C1416.39 22.008 1417.79 21.448 1419.45 21.448C1421.12 21.448 1422.51 22.008 1423.63 23.128C1424.76 24.2373 1425.32 25.608 1425.32 27.24C1425.32 28.9147 1424.76 30.328 1423.63 31.48C1422.51 32.6213 1421.12 33.192 1419.45 33.192C1417.79 33.192 1416.39 32.6213 1415.26 31.48C1414.14 30.328 1413.58 28.9147 1413.58 27.24ZM1415.71 27.24C1415.71 28.392 1416.07 29.3573 1416.8 30.136C1417.52 30.9147 1418.41 31.304 1419.45 31.304C1420.5 31.304 1421.38 30.9147 1422.11 30.136C1422.83 29.3573 1423.2 28.392 1423.2 27.24C1423.2 26.1413 1422.83 25.2187 1422.11 24.472C1421.38 23.7147 1420.5 23.336 1419.45 23.336C1418.41 23.336 1417.52 23.7147 1416.8 24.472C1416.07 25.2187 1415.71 26.1413 1415.71 27.24ZM1426.98 33L1427.9 21.64H1430.1L1432.34 27.256L1432.9 28.92H1432.93C1433.13 28.2587 1433.32 27.704 1433.49 27.256L1435.73 21.64H1437.92L1438.85 33H1436.78L1436.32 26.648C1436.3 26.424 1436.29 26.168 1436.29 25.88C1436.29 25.5813 1436.29 25.3413 1436.3 25.16V24.888H1436.27C1436.03 25.624 1435.82 26.2107 1435.65 26.648L1433.81 31.048H1432.02L1430.18 26.648L1429.55 24.872H1429.52C1429.55 25.5547 1429.55 26.1467 1429.5 26.648L1429.04 33H1426.98ZM1441.17 33V21.64H1447.97V23.416H1443.24V26.392H1447.06V28.168H1443.24V31.224H1448.23V33H1441.17ZM1450.28 33V21.64H1452.35V26.456H1457.55V21.64H1459.59V33H1457.55V28.232H1452.35V33H1450.28ZM1464.36 31.224H1468.87V23.416H1465.83V24.264C1465.83 27.3147 1465.34 29.6347 1464.36 31.224ZM1461.08 31.224H1462.23C1463.33 29.56 1463.88 27.192 1463.88 24.12V21.64H1470.94V31.224H1472.2V35.24H1470.36V33H1462.98V35.24H1461.08V31.224ZM1472.94 33L1476.92 21.64H1479.1L1483.08 33H1480.97L1480 30.088H1476.01L1475.05 33H1472.94ZM1476.52 28.408H1479.48L1478.48 25.368L1478.03 23.608H1478C1477.83 24.3547 1477.68 24.9413 1477.55 25.368L1476.52 28.408ZM1484.59 33V21.64H1486.66V31.224H1491.57V21.64H1493.63V31.224H1494.98V35.24H1493.14V33H1484.59ZM1496.94 33V21.64H1499V28.2L1498.89 29.96H1498.92C1499.29 29.224 1499.61 28.632 1499.88 28.184L1504.17 21.64H1506.22V33H1504.17V26.456L1504.28 24.696H1504.25C1503.9 25.4213 1503.58 26.008 1503.31 26.456L1498.99 33H1496.94ZM1508.99 33V21.64H1511.05V28.2L1510.94 29.96H1510.97C1511.33 29.224 1511.65 28.632 1511.93 28.184L1516.22 21.64H1518.27V33H1516.22V26.456L1516.33 24.696H1516.3C1515.95 25.4213 1515.63 26.008 1515.35 26.456L1511.03 33H1508.99Z" fill="#666666"/>
<rect x="1554" width="328" height="55" rx="27.5" fill="#F3F6FF"/>
<path d="M1581.81 31.224H1586.32V23.416H1583.28V24.264C1583.28 27.3147 1582.79 29.6347 1581.81 31.224ZM1578.53 31.224H1579.68C1580.78 29.56 1581.33 27.192 1581.33 24.12V21.64H1588.38V31.224H1589.65V35.24H1587.81V33H1580.43V35.24H1578.53V31.224ZM1590.77 27.24C1590.77 25.608 1591.33 24.2373 1592.45 23.128C1593.58 22.008 1594.98 21.448 1596.65 21.448C1598.31 21.448 1599.7 22.008 1600.82 23.128C1601.95 24.2373 1602.52 25.608 1602.52 27.24C1602.52 28.9147 1601.95 30.328 1600.82 31.48C1599.7 32.6213 1598.31 33.192 1596.65 33.192C1594.98 33.192 1593.58 32.6213 1592.45 31.48C1591.33 30.328 1590.77 28.9147 1590.77 27.24ZM1592.9 27.24C1592.9 28.392 1593.26 29.3573 1593.99 30.136C1594.72 30.9147 1595.6 31.304 1596.65 31.304C1597.69 31.304 1598.58 30.9147 1599.3 30.136C1600.03 29.3573 1600.39 28.392 1600.39 27.24C1600.39 26.1413 1600.03 25.2187 1599.3 24.472C1598.58 23.7147 1597.69 23.336 1596.65 23.336C1595.6 23.336 1594.72 23.7147 1593.99 24.472C1593.26 25.2187 1592.9 26.1413 1592.9 27.24ZM1603.95 27.272C1603.95 25.608 1604.5 24.2213 1605.59 23.112C1606.69 22.0027 1608.09 21.448 1609.79 21.448C1611.51 21.448 1612.91 21.9653 1613.98 23L1612.99 24.536C1612.57 24.184 1612.08 23.896 1611.51 23.672C1610.96 23.448 1610.42 23.336 1609.88 23.336C1608.69 23.336 1607.75 23.7093 1607.08 24.456C1606.41 25.2027 1606.07 26.1307 1606.07 27.24C1606.07 28.36 1606.42 29.32 1607.1 30.12C1607.78 30.9093 1608.71 31.304 1609.9 31.304C1611.11 31.304 1612.21 30.824 1613.19 29.864L1614.28 31.352C1613.08 32.5787 1611.59 33.192 1609.82 33.192C1608.06 33.192 1606.64 32.632 1605.56 31.512C1604.49 30.392 1603.95 28.9787 1603.95 27.272ZM1618.63 33V23.416H1614.9V21.64H1624.41V23.416H1620.68V33H1618.63ZM1625.72 32.408L1626.63 30.856C1627.11 31.2293 1627.54 31.416 1627.91 31.416C1628.41 31.416 1628.79 31.0853 1629.05 30.424L1624.6 21.64H1626.87L1629.29 26.712L1629.93 28.216H1629.96C1630.1 27.7147 1630.25 27.2187 1630.42 26.728L1632.25 21.64H1634.41L1630.9 30.616C1630.77 30.968 1630.62 31.2773 1630.47 31.544C1630.32 31.8107 1630.13 32.0773 1629.9 32.344C1629.66 32.6107 1629.38 32.8187 1629.06 32.968C1628.74 33.1173 1628.39 33.192 1627.99 33.192C1627.22 33.192 1626.47 32.9307 1625.72 32.408ZM1635.82 33V21.64H1645.02V33H1642.96V23.416H1637.89V33H1635.82ZM1651.77 33V21.64H1653.84V26.264H1655.31L1657.98 21.64H1660.22L1657.01 27.048V27.08L1660.41 33H1658.08L1655.31 28.04H1653.84V33H1651.77ZM1665.67 32.408L1666.59 30.856C1667.07 31.2293 1667.49 31.416 1667.87 31.416C1668.37 31.416 1668.75 31.0853 1669 30.424L1664.55 21.64H1666.83L1669.24 26.712L1669.88 28.216H1669.91C1670.05 27.7147 1670.21 27.2187 1670.38 26.728L1672.2 21.64H1674.36L1670.86 30.616C1670.72 30.968 1670.57 31.2773 1670.43 31.544C1670.28 31.8107 1670.08 32.0773 1669.85 32.344C1669.61 32.6107 1669.34 32.8187 1669.02 32.968C1668.7 33.1173 1668.34 33.192 1667.95 33.192C1667.18 33.192 1666.42 32.9307 1665.67 32.408ZM1678.61 28.776C1677.44 28.776 1676.57 28.4827 1676 27.896C1675.42 27.2987 1675.13 26.456 1675.13 25.368V21.64H1677.23V24.904C1677.23 26.2373 1677.87 26.904 1679.13 26.904C1680 26.904 1680.78 26.68 1681.47 26.232V21.64H1683.57V33H1681.47V28.6L1681.5 28.072H1681.47C1680.55 28.5413 1679.6 28.776 1678.61 28.776ZM1686.34 33V21.64H1693.14V23.416H1688.4V26.392H1692.22V28.168H1688.4V31.224H1693.39V33H1686.34ZM1695.45 33V21.64H1702.42V23.416H1697.51V26.04H1699.78C1700.84 26.04 1701.69 26.36 1702.34 27C1703 27.6293 1703.33 28.4773 1703.33 29.544C1703.33 30.568 1703.01 31.4 1702.36 32.04C1701.71 32.68 1700.86 33 1699.83 33H1695.45ZM1697.51 31.224H1699.46C1700.03 31.224 1700.46 31.0747 1700.77 30.776C1701.08 30.4773 1701.24 30.0667 1701.24 29.544C1701.24 29.0213 1701.08 28.6053 1700.76 28.296C1700.44 27.976 1700 27.816 1699.43 27.816H1697.51V31.224ZM1705.31 33V21.64H1707.37V26.456H1712.57V21.64H1714.62V33H1712.57V28.232H1707.37V33H1705.31ZM1726.57 33V21.64H1728.62V33H1726.57ZM1717.37 33V21.64H1719.43V25.624H1721.54C1722.6 25.624 1723.45 25.9653 1724.1 26.648C1724.77 27.32 1725.1 28.216 1725.1 29.336C1725.1 30.424 1724.77 31.3093 1724.12 31.992C1723.47 32.664 1722.63 33 1721.59 33H1717.37ZM1719.43 31.224H1721.22C1721.79 31.224 1722.23 31.0587 1722.54 30.728C1722.85 30.3867 1723 29.9227 1723 29.336C1723 28.7493 1722.84 28.28 1722.52 27.928C1722.2 27.576 1721.76 27.4 1721.19 27.4H1719.43V31.224ZM1730.95 33L1731.88 21.64H1734.07L1736.31 27.256L1736.87 28.92H1736.9C1737.11 28.2587 1737.29 27.704 1737.46 27.256L1739.7 21.64H1741.9L1742.82 33H1740.76L1740.3 26.648C1740.27 26.424 1740.26 26.168 1740.26 25.88C1740.26 25.5813 1740.27 25.3413 1740.28 25.16V24.888H1740.25C1740 25.624 1739.79 26.2107 1739.62 26.648L1737.78 31.048H1735.99L1734.15 26.648L1733.53 24.872H1733.5C1733.53 25.5547 1733.52 26.1467 1733.48 26.648L1733.02 33H1730.95ZM1748.72 33L1749.65 21.64H1751.84L1754.08 27.256L1754.64 28.92H1754.67C1754.87 28.2587 1755.06 27.704 1755.23 27.256L1757.47 21.64H1759.66L1760.59 33H1758.53L1758.06 26.648C1758.04 26.424 1758.03 26.168 1758.03 25.88C1758.03 25.5813 1758.03 25.3413 1758.05 25.16V24.888H1758.01C1757.77 25.624 1757.56 26.2107 1757.39 26.648L1755.55 31.048H1753.76L1751.92 26.648L1751.29 24.872H1751.26C1751.29 25.5547 1751.29 26.1467 1751.25 26.648L1750.78 33H1748.72ZM1761.67 33L1765.65 21.64H1767.83L1771.81 33H1769.7L1768.72 30.088H1764.74L1763.78 33H1761.67ZM1765.25 28.408H1768.21L1767.2 25.368L1766.76 23.608H1766.72C1766.55 24.3547 1766.4 24.9413 1766.28 25.368L1765.25 28.408ZM1774.96 33V23.416H1771.23V21.64H1780.74V23.416H1777.01V33H1774.96ZM1782.35 33V21.64H1789.15V23.416H1784.42V26.392H1788.24V28.168H1784.42V31.224H1789.41V33H1782.35ZM1791.46 33V21.64H1795.85C1796.91 21.64 1797.78 21.9813 1798.45 22.664C1799.13 23.3467 1799.46 24.2373 1799.46 25.336C1799.46 26.4347 1799.13 27.336 1798.45 28.04C1797.78 28.7333 1796.91 29.08 1795.85 29.08H1793.53V33H1791.46ZM1793.53 27.288H1795.46C1796.06 27.288 1796.52 27.112 1796.85 26.76C1797.2 26.408 1797.37 25.9333 1797.37 25.336C1797.37 24.7493 1797.2 24.2853 1796.85 23.944C1796.52 23.592 1796.07 23.416 1795.49 23.416H1793.53V27.288ZM1801.26 33V21.64H1803.32V28.2L1803.21 29.96H1803.24C1803.61 29.224 1803.93 28.632 1804.2 28.184L1808.49 21.64H1810.54V33H1808.49V26.456L1808.6 24.696H1808.57C1808.22 25.4213 1807.9 26.008 1807.63 26.456L1803.31 33H1801.26ZM1812.06 33L1816.04 21.64H1818.22L1822.2 33H1820.09L1819.11 30.088H1815.13L1814.17 33H1812.06ZM1815.64 28.408H1818.6L1817.59 25.368L1817.15 23.608H1817.11C1816.94 24.3547 1816.79 24.9413 1816.67 25.368L1815.64 28.408ZM1822.56 31.24C1823.41 31.1227 1824.03 30.5573 1824.42 29.544C1824.81 28.52 1825.01 26.92 1825.01 24.744V21.64H1832.03V33H1829.97V23.416H1826.98V24.776C1826.98 27.5707 1826.63 29.6507 1825.94 31.016C1825.24 32.3707 1824.12 33.0747 1822.56 33.128V31.24ZM1833.54 33L1837.53 21.64H1839.7L1843.69 33H1841.57L1840.6 30.088H1836.61L1835.65 33H1833.54ZM1837.13 28.408H1840.09L1839.08 25.368L1838.63 23.608H1838.6C1838.43 24.3547 1838.28 24.9413 1838.15 25.368L1837.13 28.408ZM1844.76 33L1845.69 21.64H1847.88L1850.12 27.256L1850.68 28.92H1850.72C1850.92 28.2587 1851.11 27.704 1851.28 27.256L1853.52 21.64H1855.71L1856.64 33H1854.57L1854.11 26.648C1854.09 26.424 1854.08 26.168 1854.08 25.88C1854.08 25.5813 1854.08 25.3413 1854.09 25.16V24.888H1854.06C1853.81 25.624 1853.61 26.2107 1853.44 26.648L1851.6 31.048H1849.8L1847.96 26.648L1847.34 24.872H1847.31C1847.34 25.5547 1847.33 26.1467 1847.29 26.648L1846.83 33H1844.76Z" fill="#005DFF"/>
</svg>
