<svg width="1882" height="55" viewBox="0 0 1882 55" fill="none" xmlns="http://www.w3.org/2000/svg">
<rect width="308" height="55" rx="27.5" fill="#F3F6FF"/>
<path d="M25.7198 33V21.64H27.7838V26.264H29.2558L31.9278 21.64H34.1678L30.9518 27.048V27.08L34.3598 33H32.0238L29.2558 28.04H27.7838V33H25.7198ZM34.7709 31.24C35.6242 31.1227 36.2429 30.5573 36.6269 29.544C37.0215 28.52 37.2189 26.92 37.2189 24.744V21.64H44.2429V33H42.1789V23.416H39.1869V24.776C39.1869 27.5707 38.8402 29.6507 38.1469 31.016C37.4535 32.3707 36.3282 33.0747 34.7709 33.128V31.24ZM47.001 33V21.64H49.065V28.2L48.953 29.96H48.985C49.3477 29.224 49.6677 28.632 49.945 28.184L54.233 21.64H56.281V33H54.233V26.456L54.345 24.696H54.313C53.961 25.4213 53.6463 26.008 53.369 26.456L49.049 33H47.001ZM59.0479 33V21.64H61.1119V26.456H66.3119V21.64H68.3599V33H66.3119V28.232H61.1119V33H59.0479ZM71.1104 33V21.64H73.1744V28.2L73.0624 29.96H73.0944C73.457 29.224 73.777 28.632 74.0544 28.184L78.3424 21.64H80.3904V33H78.3424V26.456L78.4544 24.696H78.4224C78.0704 25.4213 77.7557 26.008 77.4784 26.456L73.1584 33H71.1104ZM85.9893 28.776C84.8266 28.776 83.9573 28.4827 83.3813 27.896C82.8053 27.2987 82.5173 26.456 82.5173 25.368V21.64H84.6133V24.904C84.6133 26.2373 85.2479 26.904 86.5173 26.904C87.3813 26.904 88.1599 26.68 88.8533 26.232V21.64H90.9493V33H88.8533V28.6L88.8853 28.072H88.8533C87.9359 28.5413 86.9813 28.776 85.9893 28.776ZM93.7198 33V21.64H100.52V23.416H95.7838V26.392H99.6078V28.168H95.7838V31.224H100.776V33H93.7198ZM101.97 27.272C101.97 25.608 102.519 24.2213 103.618 23.112C104.717 22.0027 106.114 21.448 107.81 21.448C109.538 21.448 110.935 21.9653 112.002 23L111.01 24.536C110.594 24.184 110.103 23.896 109.538 23.672C108.983 23.448 108.439 23.336 107.906 23.336C106.711 23.336 105.778 23.7093 105.106 24.456C104.434 25.2027 104.098 26.1307 104.098 27.24C104.098 28.36 104.439 29.32 105.122 30.12C105.805 30.9093 106.738 31.304 107.922 31.304C109.138 31.304 110.237 30.824 111.218 29.864L112.306 31.352C111.101 32.5787 109.613 33.192 107.842 33.192C106.082 33.192 104.663 32.632 103.586 31.512C102.509 30.392 101.97 28.9787 101.97 27.272ZM114.079 33V21.64H116.143V26.264H117.615L120.287 21.64H122.527L119.311 27.048V27.08L122.719 33H120.383L117.615 28.04H116.143V33H114.079ZM124.282 33V21.64H126.346V28.2L126.234 29.96H126.266C126.629 29.224 126.949 28.632 127.226 28.184L131.514 21.64H133.562V33H131.514V26.456L131.626 24.696H131.594C131.242 25.4213 130.928 26.008 130.65 26.456L126.33 33H124.282ZM136.329 33V21.64H143.129V23.416H138.393V26.392H142.217V28.168H138.393V31.224H143.385V33H136.329ZM149.439 33V21.64H153.823C154.889 21.64 155.759 21.9813 156.431 22.664C157.103 23.3467 157.439 24.2373 157.439 25.336C157.439 26.4347 157.103 27.336 156.431 28.04C155.759 28.7333 154.889 29.08 153.823 29.08H151.503V33H149.439ZM151.503 27.288H153.439C154.036 27.288 154.5 27.112 154.831 26.76C155.172 26.408 155.343 25.9333 155.343 25.336C155.343 24.7493 155.172 24.2853 154.831 23.944C154.5 23.592 154.047 23.416 153.471 23.416H151.503V27.288ZM159.235 33V21.64H166.035V23.416H161.299V26.392H165.123V28.168H161.299V31.224H166.291V33H159.235ZM168.345 33V21.64H170.409V26.264H171.881L174.553 21.64H176.793L173.577 27.048V27.08L176.985 33H174.649L171.881 28.04H170.409V33H168.345ZM177.579 27.24C177.579 25.608 178.139 24.2373 179.259 23.128C180.39 22.008 181.787 21.448 183.451 21.448C185.115 21.448 186.507 22.008 187.627 23.128C188.758 24.2373 189.323 25.608 189.323 27.24C189.323 28.9147 188.758 30.328 187.627 31.48C186.507 32.6213 185.115 33.192 183.451 33.192C181.787 33.192 180.39 32.6213 179.259 31.48C178.139 30.328 177.579 28.9147 177.579 27.24ZM179.707 27.24C179.707 28.392 180.07 29.3573 180.795 30.136C181.52 30.9147 182.406 31.304 183.451 31.304C184.496 31.304 185.382 30.9147 186.107 30.136C186.832 29.3573 187.195 28.392 187.195 27.24C187.195 26.1413 186.832 25.2187 186.107 24.472C185.382 23.7147 184.496 23.336 183.451 23.336C182.406 23.336 181.52 23.7147 180.795 24.472C180.07 25.2187 179.707 26.1413 179.707 27.24ZM190.975 33L191.903 21.64H194.095L196.335 27.256L196.895 28.92H196.927C197.13 28.2587 197.317 27.704 197.487 27.256L199.727 21.64H201.919L202.847 33H200.783L200.319 26.648C200.298 26.424 200.287 26.168 200.287 25.88C200.287 25.5813 200.293 25.3413 200.303 25.16V24.888H200.271C200.026 25.624 199.818 26.2107 199.647 26.648L197.807 31.048H196.015L194.175 26.648L193.551 24.872H193.519C193.551 25.5547 193.546 26.1467 193.503 26.648L193.039 33H190.975ZM205.173 33V21.64H211.973V23.416H207.237V26.392H211.061V28.168H207.237V31.224H212.229V33H205.173ZM214.282 33V21.64H216.346V26.456H221.546V21.64H223.594V33H221.546V28.232H216.346V33H214.282ZM228.361 31.224H232.873V23.416H229.833V24.264C229.833 27.3147 229.342 29.6347 228.361 31.224ZM225.081 31.224H226.233C227.331 29.56 227.881 27.192 227.881 24.12V21.64H234.937V31.224H236.201V35.24H234.361V33H226.985V35.24H225.081V31.224ZM236.941 33L240.924 21.64H243.101L247.085 33H244.973L243.997 30.088H240.013L239.053 33H236.941ZM240.525 28.408H243.485L242.477 25.368L242.029 23.608H241.997C241.826 24.3547 241.677 24.9413 241.549 25.368L240.525 28.408ZM248.595 33V21.64H250.659V31.224H255.571V21.64H257.635V31.224H258.979V35.24H257.139V33H248.595ZM260.939 33V21.64H263.003V28.2L262.891 29.96H262.923C263.285 29.224 263.605 28.632 263.883 28.184L268.171 21.64H270.219V33H268.171V26.456L268.283 24.696H268.251C267.899 25.4213 267.584 26.008 267.307 26.456L262.987 33H260.939ZM272.985 33V21.64H275.049V28.2L274.937 29.96H274.969C275.332 29.224 275.652 28.632 275.929 28.184L280.217 21.64H282.265V33H280.217V26.456L280.329 24.696H280.297C279.945 25.4213 279.631 26.008 279.353 26.456L275.033 33H272.985Z" fill="#005DFF"/>
<rect x="318" width="297" height="55" rx="27.5" fill="#F3F6FF"/>
<path d="M343.696 33V21.64H348.08C349.147 21.64 350.016 21.9813 350.688 22.664C351.36 23.3467 351.696 24.2373 351.696 25.336C351.696 26.4347 351.36 27.336 350.688 28.04C350.016 28.7333 349.147 29.08 348.08 29.08H345.76V33H343.696ZM345.76 27.288H347.696C348.294 27.288 348.758 27.112 349.088 26.76C349.43 26.408 349.6 25.9333 349.6 25.336C349.6 24.7493 349.43 24.2853 349.088 23.944C348.758 23.592 348.304 23.416 347.728 23.416H345.76V27.288ZM353.493 33V21.64H360.293V23.416H355.557V26.392H359.381V28.168H355.557V31.224H360.549V33H353.493ZM362.603 33V21.64H364.667V26.264H366.139L368.811 21.64H371.051L367.835 27.048V27.08L371.243 33H368.907L366.139 28.04H364.667V33H362.603ZM371.837 27.24C371.837 25.608 372.397 24.2373 373.517 23.128C374.647 22.008 376.045 21.448 377.709 21.448C379.373 21.448 380.765 22.008 381.885 23.128C383.015 24.2373 383.581 25.608 383.581 27.24C383.581 28.9147 383.015 30.328 381.885 31.48C380.765 32.6213 379.373 33.192 377.709 33.192C376.045 33.192 374.647 32.6213 373.517 31.48C372.397 30.328 371.837 28.9147 371.837 27.24ZM373.965 27.24C373.965 28.392 374.327 29.3573 375.053 30.136C375.778 30.9147 376.663 31.304 377.709 31.304C378.754 31.304 379.639 30.9147 380.365 30.136C381.09 29.3573 381.453 28.392 381.453 27.24C381.453 26.1413 381.09 25.2187 380.365 24.472C379.639 23.7147 378.754 23.336 377.709 23.336C376.663 23.336 375.778 23.7147 375.053 24.472C374.327 25.2187 373.965 26.1413 373.965 27.24ZM385.233 33L386.161 21.64H388.353L390.593 27.256L391.153 28.92H391.185C391.388 28.2587 391.574 27.704 391.745 27.256L393.985 21.64H396.177L397.105 33H395.041L394.577 26.648C394.556 26.424 394.545 26.168 394.545 25.88C394.545 25.5813 394.55 25.3413 394.561 25.16V24.888H394.529C394.284 25.624 394.076 26.2107 393.905 26.648L392.065 31.048H390.273L388.433 26.648L387.809 24.872H387.777C387.809 25.5547 387.804 26.1467 387.761 26.648L387.297 33H385.233ZM399.431 33V21.64H406.231V23.416H401.495V26.392H405.319V28.168H401.495V31.224H406.487V33H399.431ZM408.54 33V21.64H410.604V26.456H415.804V21.64H417.852V33H415.804V28.232H410.604V33H408.54ZM422.619 31.224H427.131V23.416H424.091V24.264C424.091 27.3147 423.6 29.6347 422.619 31.224ZM419.339 31.224H420.491C421.589 29.56 422.139 27.192 422.139 24.12V21.64H429.195V31.224H430.459V35.24H428.619V33H421.243V35.24H419.339V31.224ZM431.198 33L435.182 21.64H437.358L441.342 33H439.23L438.254 30.088H434.27L433.31 33H431.198ZM434.782 28.408H437.742L436.734 25.368L436.286 23.608H436.254C436.084 24.3547 435.934 24.9413 435.806 25.368L434.782 28.408ZM444.491 33V23.416H440.763V21.64H450.267V23.416H446.539V33H444.491ZM451.884 33V21.64H458.684V23.416H453.948V26.392H457.772V28.168H453.948V31.224H458.94V33H451.884ZM459.841 31.24C460.695 31.1227 461.313 30.5573 461.697 29.544C462.092 28.52 462.289 26.92 462.289 24.744V21.64H469.313V33H467.249V23.416H464.257V24.776C464.257 27.5707 463.911 29.6507 463.217 31.016C462.524 32.3707 461.399 33.0747 459.841 33.128V31.24ZM472.071 33V21.64H474.135V25.624H476.359C477.405 25.624 478.258 25.9653 478.919 26.648C479.581 27.32 479.911 28.216 479.911 29.336C479.911 30.424 479.586 31.3093 478.935 31.992C478.285 32.664 477.437 33 476.391 33H472.071ZM474.135 31.224H476.023C476.589 31.224 477.026 31.0587 477.335 30.728C477.655 30.3867 477.815 29.9227 477.815 29.336C477.815 28.7493 477.65 28.28 477.319 27.928C476.999 27.576 476.557 27.4 475.991 27.4H474.135V31.224ZM481.712 33V21.64H483.776V26.456H488.976V21.64H491.024V33H488.976V28.232H483.776V33H481.712ZM493.102 27.24C493.102 25.608 493.662 24.2373 494.782 23.128C495.913 22.008 497.31 21.448 498.974 21.448C500.638 21.448 502.03 22.008 503.15 23.128C504.281 24.2373 504.846 25.608 504.846 27.24C504.846 28.9147 504.281 30.328 503.15 31.48C502.03 32.6213 500.638 33.192 498.974 33.192C497.31 33.192 495.913 32.6213 494.782 31.48C493.662 30.328 493.102 28.9147 493.102 27.24ZM495.23 27.24C495.23 28.392 495.593 29.3573 496.318 30.136C497.044 30.9147 497.929 31.304 498.974 31.304C500.02 31.304 500.905 30.9147 501.63 30.136C502.356 29.3573 502.718 28.392 502.718 27.24C502.718 26.1413 502.356 25.2187 501.63 24.472C500.905 23.7147 500.02 23.336 498.974 23.336C497.929 23.336 497.044 23.7147 496.318 24.472C495.593 25.2187 495.23 26.1413 495.23 27.24ZM506.931 33V21.64H513.731V23.416H508.995V26.392H512.819V28.168H508.995V31.224H513.987V33H506.931ZM520.04 33V21.64H529.24V33H527.176V23.416H522.104V33H520.04ZM531.993 33V21.64H534.057V28.2L533.945 29.96H533.977C534.34 29.224 534.66 28.632 534.937 28.184L539.225 21.64H541.273V33H539.225V26.456L539.337 24.696H539.305C538.953 25.4213 538.639 26.008 538.361 26.456L534.041 33H531.993ZM543.384 27.272C543.384 25.608 543.933 24.2213 545.032 23.112C546.131 22.0027 547.528 21.448 549.224 21.448C550.952 21.448 552.349 21.9653 553.416 23L552.424 24.536C552.008 24.184 551.517 23.896 550.952 23.672C550.397 23.448 549.853 23.336 549.32 23.336C548.125 23.336 547.192 23.7093 546.52 24.456C545.848 25.2027 545.512 26.1307 545.512 27.24C545.512 28.36 545.853 29.32 546.536 30.12C547.219 30.9093 548.152 31.304 549.336 31.304C550.552 31.304 551.651 30.824 552.632 29.864L553.72 31.352C552.515 32.5787 551.027 33.192 549.256 33.192C547.496 33.192 546.077 32.632 545 31.512C543.923 30.392 543.384 28.9787 543.384 27.272ZM555.493 33V21.64H557.557V25.624H559.781C560.827 25.624 561.68 25.9653 562.341 26.648C563.003 27.32 563.333 28.216 563.333 29.336C563.333 30.424 563.008 31.3093 562.357 31.992C561.707 32.664 560.859 33 559.813 33H555.493ZM557.557 31.224H559.445C560.011 31.224 560.448 31.0587 560.757 30.728C561.077 30.3867 561.237 29.9227 561.237 29.336C561.237 28.7493 561.072 28.28 560.741 27.928C560.421 27.576 559.979 27.4 559.413 27.4H557.557V31.224ZM564.702 33L565.63 21.64H567.822L570.062 27.256L570.622 28.92H570.654C570.856 28.2587 571.043 27.704 571.214 27.256L573.454 21.64H575.646L576.574 33H574.51L574.046 26.648C574.024 26.424 574.014 26.168 574.014 25.88C574.014 25.5813 574.019 25.3413 574.03 25.16V24.888H573.998C573.752 25.624 573.544 26.2107 573.374 26.648L571.534 31.048H569.742L567.902 26.648L567.278 24.872H567.246C567.278 25.5547 567.272 26.1467 567.23 26.648L566.766 33H564.702ZM578.227 27.24C578.227 25.608 578.787 24.2373 579.907 23.128C581.038 22.008 582.435 21.448 584.099 21.448C585.763 21.448 587.155 22.008 588.275 23.128C589.406 24.2373 589.971 25.608 589.971 27.24C589.971 28.9147 589.406 30.328 588.275 31.48C587.155 32.6213 585.763 33.192 584.099 33.192C582.435 33.192 581.038 32.6213 579.907 31.48C578.787 30.328 578.227 28.9147 578.227 27.24ZM580.355 27.24C580.355 28.392 580.718 29.3573 581.443 30.136C582.169 30.9147 583.054 31.304 584.099 31.304C585.145 31.304 586.03 30.9147 586.755 30.136C587.481 29.3573 587.843 28.392 587.843 27.24C587.843 26.1413 587.481 25.2187 586.755 24.472C586.03 23.7147 585.145 23.336 584.099 23.336C583.054 23.336 582.169 23.7147 581.443 24.472C580.718 25.2187 580.355 26.1413 580.355 27.24Z" fill="#666666"/>
<rect x="625" width="328" height="55" rx="27.5" fill="#F3F6FF"/>
<path d="M652.806 31.224H657.318V23.416H654.278V24.264C654.278 27.3147 653.787 29.6347 652.806 31.224ZM649.526 31.224H650.678C651.777 29.56 652.326 27.192 652.326 24.12V21.64H659.382V31.224H660.646V35.24H658.806V33H651.43V35.24H649.526V31.224ZM661.774 27.24C661.774 25.608 662.334 24.2373 663.454 23.128C664.585 22.008 665.982 21.448 667.646 21.448C669.31 21.448 670.702 22.008 671.822 23.128C672.953 24.2373 673.518 25.608 673.518 27.24C673.518 28.9147 672.953 30.328 671.822 31.48C670.702 32.6213 669.31 33.192 667.646 33.192C665.982 33.192 664.585 32.6213 663.454 31.48C662.334 30.328 661.774 28.9147 661.774 27.24ZM663.902 27.24C663.902 28.392 664.265 29.3573 664.99 30.136C665.716 30.9147 666.601 31.304 667.646 31.304C668.692 31.304 669.577 30.9147 670.302 30.136C671.028 29.3573 671.39 28.392 671.39 27.24C671.39 26.1413 671.028 25.2187 670.302 24.472C669.577 23.7147 668.692 23.336 667.646 23.336C666.601 23.336 665.716 23.7147 664.99 24.472C664.265 25.2187 663.902 26.1413 663.902 27.24ZM674.947 27.272C674.947 25.608 675.496 24.2213 676.595 23.112C677.693 22.0027 679.091 21.448 680.787 21.448C682.515 21.448 683.912 21.9653 684.979 23L683.987 24.536C683.571 24.184 683.08 23.896 682.515 23.672C681.96 23.448 681.416 23.336 680.883 23.336C679.688 23.336 678.755 23.7093 678.083 24.456C677.411 25.2027 677.075 26.1307 677.075 27.24C677.075 28.36 677.416 29.32 678.099 30.12C678.781 30.9093 679.715 31.304 680.899 31.304C682.115 31.304 683.213 30.824 684.195 29.864L685.283 31.352C684.077 32.5787 682.589 33.192 680.819 33.192C679.059 33.192 677.64 32.632 676.563 31.512C675.485 30.392 674.947 28.9787 674.947 27.272ZM689.632 33V23.416H685.904V21.64H695.408V23.416H691.68V33H689.632ZM696.72 32.408L697.632 30.856C698.112 31.2293 698.539 31.416 698.912 31.416C699.414 31.416 699.792 31.0853 700.048 30.424L695.6 21.64H697.872L700.288 26.712L700.928 28.216H700.96C701.099 27.7147 701.254 27.2187 701.424 26.728L703.248 21.64H705.408L701.904 30.616C701.766 30.968 701.622 31.2773 701.472 31.544C701.323 31.8107 701.131 32.0773 700.896 32.344C700.662 32.6107 700.384 32.8187 700.064 32.968C699.744 33.1173 699.387 33.192 698.992 33.192C698.224 33.192 697.467 32.9307 696.72 32.408ZM706.821 33V21.64H716.021V33H713.957V23.416H708.885V33H706.821ZM722.774 33V21.64H724.838V26.264H726.31L728.982 21.64H731.222L728.006 27.048V27.08L731.414 33H729.078L726.31 28.04H724.838V33H722.774ZM736.674 32.408L737.586 30.856C738.066 31.2293 738.492 31.416 738.866 31.416C739.367 31.416 739.746 31.0853 740.002 30.424L735.554 21.64H737.826L740.242 26.712L740.882 28.216H740.914C741.052 27.7147 741.207 27.2187 741.378 26.728L743.202 21.64H745.362L741.858 30.616C741.719 30.968 741.575 31.2773 741.426 31.544C741.276 31.8107 741.084 32.0773 740.85 32.344C740.615 32.6107 740.338 32.8187 740.018 32.968C739.698 33.1173 739.34 33.192 738.946 33.192C738.178 33.192 737.42 32.9307 736.674 32.408ZM749.606 28.776C748.444 28.776 747.574 28.4827 746.998 27.896C746.422 27.2987 746.134 26.456 746.134 25.368V21.64H748.23V24.904C748.23 26.2373 748.865 26.904 750.134 26.904C750.998 26.904 751.777 26.68 752.47 26.232V21.64H754.566V33H752.47V28.6L752.502 28.072H752.47C751.553 28.5413 750.598 28.776 749.606 28.776ZM757.337 33V21.64H764.137V23.416H759.401V26.392H763.225V28.168H759.401V31.224H764.393V33H757.337ZM766.446 33V21.64H773.422V23.416H768.51V26.04H770.782C771.838 26.04 772.692 26.36 773.342 27C774.004 27.6293 774.334 28.4773 774.334 29.544C774.334 30.568 774.009 31.4 773.358 32.04C772.708 32.68 771.865 33 770.83 33H766.446ZM768.51 31.224H770.462C771.028 31.224 771.465 31.0747 771.774 30.776C772.084 30.4773 772.238 30.0667 772.238 29.544C772.238 29.0213 772.078 28.6053 771.758 28.296C771.438 27.976 770.996 27.816 770.43 27.816H768.51V31.224ZM776.306 33V21.64H778.37V26.456H783.57V21.64H785.618V33H783.57V28.232H778.37V33H776.306ZM797.568 33V21.64H799.616V33H797.568ZM788.368 33V21.64H790.432V25.624H792.544C793.6 25.624 794.454 25.9653 795.104 26.648C795.766 27.32 796.096 28.216 796.096 29.336C796.096 30.424 795.771 31.3093 795.12 31.992C794.47 32.664 793.627 33 792.592 33H788.368ZM790.432 31.224H792.224C792.79 31.224 793.227 31.0587 793.536 30.728C793.846 30.3867 794 29.9227 794 29.336C794 28.7493 793.84 28.28 793.52 27.928C793.2 27.576 792.758 27.4 792.192 27.4H790.432V31.224ZM801.952 33L802.88 21.64H805.072L807.312 27.256L807.872 28.92H807.904C808.106 28.2587 808.293 27.704 808.464 27.256L810.704 21.64H812.896L813.824 33H811.76L811.296 26.648C811.274 26.424 811.264 26.168 811.264 25.88C811.264 25.5813 811.269 25.3413 811.28 25.16V24.888H811.248C811.002 25.624 810.794 26.2107 810.624 26.648L808.784 31.048H806.992L805.152 26.648L804.528 24.872H804.496C804.528 25.5547 804.522 26.1467 804.48 26.648L804.016 33H801.952ZM819.717 33L820.645 21.64H822.837L825.077 27.256L825.637 28.92H825.669C825.872 28.2587 826.059 27.704 826.229 27.256L828.469 21.64H830.661L831.589 33H829.525L829.061 26.648C829.04 26.424 829.029 26.168 829.029 25.88C829.029 25.5813 829.035 25.3413 829.045 25.16V24.888H829.013C828.768 25.624 828.56 26.2107 828.389 26.648L826.549 31.048H824.757L822.917 26.648L822.293 24.872H822.261C822.293 25.5547 822.288 26.1467 822.245 26.648L821.781 33H819.717ZM832.667 33L836.651 21.64H838.827L842.811 33H840.699L839.723 30.088H835.739L834.779 33H832.667ZM836.251 28.408H839.211L838.203 25.368L837.755 23.608H837.723C837.552 24.3547 837.403 24.9413 837.275 25.368L836.251 28.408ZM845.96 33V23.416H842.232V21.64H851.736V23.416H848.008V33H845.96ZM853.353 33V21.64H860.153V23.416H855.417V26.392H859.241V28.168H855.417V31.224H860.409V33H853.353ZM862.462 33V21.64H866.846C867.913 21.64 868.782 21.9813 869.454 22.664C870.126 23.3467 870.462 24.2373 870.462 25.336C870.462 26.4347 870.126 27.336 869.454 28.04C868.782 28.7333 867.913 29.08 866.846 29.08H864.526V33H862.462ZM864.526 27.288H866.462C867.059 27.288 867.523 27.112 867.854 26.76C868.195 26.408 868.366 25.9333 868.366 25.336C868.366 24.7493 868.195 24.2853 867.854 23.944C867.523 23.592 867.07 23.416 866.494 23.416H864.526V27.288ZM872.259 33V21.64H874.323V28.2L874.211 29.96H874.243C874.605 29.224 874.925 28.632 875.203 28.184L879.491 21.64H881.539V33H879.491V26.456L879.603 24.696H879.571C879.219 25.4213 878.904 26.008 878.627 26.456L874.307 33H872.259ZM883.058 33L887.042 21.64H889.218L893.202 33H891.09L890.114 30.088H886.13L885.17 33H883.058ZM886.642 28.408H889.602L888.594 25.368L888.146 23.608H888.114C887.943 24.3547 887.794 24.9413 887.666 25.368L886.642 28.408ZM893.56 31.24C894.413 31.1227 895.032 30.5573 895.416 29.544C895.811 28.52 896.008 26.92 896.008 24.744V21.64H903.032V33H900.968V23.416H897.976V24.776C897.976 27.5707 897.629 29.6507 896.936 31.016C896.243 32.3707 895.117 33.0747 893.56 33.128V31.24ZM904.542 33L908.526 21.64H910.702L914.686 33H912.574L911.598 30.088H907.614L906.654 33H904.542ZM908.126 28.408H911.086L910.078 25.368L909.63 23.608H909.598C909.427 24.3547 909.278 24.9413 909.15 25.368L908.126 28.408ZM915.764 33L916.692 21.64H918.884L921.124 27.256L921.684 28.92H921.716C921.919 28.2587 922.106 27.704 922.276 27.256L924.516 21.64H926.708L927.636 33H925.572L925.108 26.648C925.087 26.424 925.076 26.168 925.076 25.88C925.076 25.5813 925.082 25.3413 925.092 25.16V24.888H925.06C924.815 25.624 924.607 26.2107 924.436 26.648L922.596 31.048H920.804L918.964 26.648L918.34 24.872H918.308C918.34 25.5547 918.335 26.1467 918.292 26.648L917.828 33H915.764Z" fill="#005DFF"/>
<rect x="963" width="307" height="55" rx="27.5" fill="#F3F6FF"/>
<path d="M988.798 33V21.64H997.998V33H995.934V23.416H990.862V33H988.798ZM1000.08 27.24C1000.08 25.608 1000.64 24.2373 1001.76 23.128C1002.89 22.008 1004.29 21.448 1005.95 21.448C1007.62 21.448 1009.01 22.008 1010.13 23.128C1011.26 24.2373 1011.82 25.608 1011.82 27.24C1011.82 28.9147 1011.26 30.328 1010.13 31.48C1009.01 32.6213 1007.62 33.192 1005.95 33.192C1004.29 33.192 1002.89 32.6213 1001.76 31.48C1000.64 30.328 1000.08 28.9147 1000.08 27.24ZM1002.21 27.24C1002.21 28.392 1002.57 29.3573 1003.3 30.136C1004.02 30.9147 1004.91 31.304 1005.95 31.304C1007 31.304 1007.88 30.9147 1008.61 30.136C1009.33 29.3573 1009.7 28.392 1009.7 27.24C1009.7 26.1413 1009.33 25.2187 1008.61 24.472C1007.88 23.7147 1007 23.336 1005.95 23.336C1004.91 23.336 1004.02 23.7147 1003.3 24.472C1002.57 25.2187 1002.21 26.1413 1002.21 27.24ZM1015.55 31.224H1020.06V23.416H1017.02V24.264C1017.02 27.3147 1016.53 29.6347 1015.55 31.224ZM1012.27 31.224H1013.42C1014.52 29.56 1015.07 27.192 1015.07 24.12V21.64H1022.12V31.224H1023.39V35.24H1021.55V33H1014.17V35.24H1012.27V31.224ZM1025.38 33V21.64H1031.9V23.416H1027.44V33H1025.38ZM1032.39 27.24C1032.39 25.608 1032.95 24.2373 1034.07 23.128C1035.2 22.008 1036.6 21.448 1038.26 21.448C1039.93 21.448 1041.32 22.008 1042.44 23.128C1043.57 24.2373 1044.14 25.608 1044.14 27.24C1044.14 28.9147 1043.57 30.328 1042.44 31.48C1041.32 32.6213 1039.93 33.192 1038.26 33.192C1036.6 33.192 1035.2 32.6213 1034.07 31.48C1032.95 30.328 1032.39 28.9147 1032.39 27.24ZM1034.52 27.24C1034.52 28.392 1034.88 29.3573 1035.61 30.136C1036.33 30.9147 1037.22 31.304 1038.26 31.304C1039.31 31.304 1040.19 30.9147 1040.92 30.136C1041.64 29.3573 1042.01 28.392 1042.01 27.24C1042.01 26.1413 1041.64 25.2187 1040.92 24.472C1040.19 23.7147 1039.31 23.336 1038.26 23.336C1037.22 23.336 1036.33 23.7147 1035.61 24.472C1034.88 25.2187 1034.52 26.1413 1034.52 27.24ZM1048.39 33V23.416H1044.66V21.64H1054.17V23.416H1050.44V33H1048.39ZM1054.7 27.24C1054.7 25.608 1055.26 24.2373 1056.38 23.128C1057.51 22.008 1058.91 21.448 1060.58 21.448C1062.24 21.448 1063.63 22.008 1064.75 23.128C1065.88 24.2373 1066.45 25.608 1066.45 27.24C1066.45 28.9147 1065.88 30.328 1064.75 31.48C1063.63 32.6213 1062.24 33.192 1060.58 33.192C1058.91 33.192 1057.51 32.6213 1056.38 31.48C1055.26 30.328 1054.7 28.9147 1054.7 27.24ZM1056.83 27.24C1056.83 28.392 1057.19 29.3573 1057.92 30.136C1058.65 30.9147 1059.53 31.304 1060.58 31.304C1061.62 31.304 1062.51 30.9147 1063.23 30.136C1063.96 29.3573 1064.32 28.392 1064.32 27.24C1064.32 26.1413 1063.96 25.2187 1063.23 24.472C1062.51 23.7147 1061.62 23.336 1060.58 23.336C1059.53 23.336 1058.65 23.7147 1057.92 24.472C1057.19 25.2187 1056.83 26.1413 1056.83 27.24ZM1068.53 33V21.64H1072.58C1073.64 21.64 1074.48 21.9013 1075.12 22.424C1075.77 22.936 1076.1 23.6507 1076.1 24.568C1076.1 25.1013 1075.98 25.5813 1075.73 26.008C1075.49 26.4347 1075.15 26.7653 1074.72 27V27.032C1075.32 27.2027 1075.77 27.5387 1076.08 28.04C1076.4 28.5413 1076.56 29.096 1076.56 29.704C1076.56 30.7813 1076.19 31.6027 1075.44 32.168C1074.7 32.7227 1073.76 33 1072.64 33H1068.53ZM1070.6 26.28H1072.6C1073.03 26.28 1073.37 26.1467 1073.62 25.88C1073.88 25.6027 1074 25.2507 1074 24.824C1074 24.408 1073.88 24.072 1073.62 23.816C1073.37 23.5493 1073.02 23.416 1072.56 23.416H1070.6V26.28ZM1070.6 31.224H1072.8C1073.32 31.224 1073.72 31.0747 1074 30.776C1074.3 30.4667 1074.45 30.0667 1074.45 29.576C1074.45 29.096 1074.3 28.7067 1074 28.408C1073.72 28.0987 1073.32 27.944 1072.8 27.944H1070.6V31.224ZM1078.66 33V21.64H1080.72V26.264H1082.19L1084.87 21.64H1087.11L1083.89 27.048V27.08L1087.3 33H1084.96L1082.19 28.04H1080.72V33H1078.66ZM1087.61 33L1091.6 21.64H1093.77L1097.76 33H1095.64L1094.67 30.088H1090.68L1089.72 33H1087.61ZM1091.2 28.408H1094.16L1093.15 25.368L1092.7 23.608H1092.67C1092.5 24.3547 1092.35 24.9413 1092.22 25.368L1091.2 28.408ZM1103.27 33V21.64H1105.33V26.264H1106.8L1109.47 21.64H1111.71L1108.5 27.048V27.08L1111.91 33H1109.57L1106.8 28.04H1105.33V33H1103.27ZM1116.22 33L1120.21 21.64H1122.38L1126.37 33H1124.25L1123.28 30.088H1119.29L1118.33 33H1116.22ZM1119.81 28.408H1122.77L1121.76 25.368L1121.31 23.608H1121.28C1121.11 24.3547 1120.96 24.9413 1120.83 25.368L1119.81 28.408ZM1127.88 33V21.64H1129.94V26.264H1131.41L1134.08 21.64H1136.32L1133.11 27.048V27.08L1136.52 33H1134.18L1131.41 28.04H1129.94V33H1127.88ZM1138.08 33V21.64H1140.14V26.264H1141.62L1144.29 21.64H1146.53L1143.31 27.048V27.08L1146.72 33H1144.38L1141.62 28.04H1140.14V33H1138.08ZM1148.28 33V21.64H1152.67C1153.73 21.64 1154.6 21.9813 1155.27 22.664C1155.95 23.3467 1156.28 24.2373 1156.28 25.336C1156.28 26.4347 1155.95 27.336 1155.27 28.04C1154.6 28.7333 1153.73 29.08 1152.67 29.08H1150.35V33H1148.28ZM1150.35 27.288H1152.28C1152.88 27.288 1153.34 27.112 1153.67 26.76C1154.02 26.408 1154.19 25.9333 1154.19 25.336C1154.19 24.7493 1154.02 24.2853 1153.67 23.944C1153.34 23.592 1152.89 23.416 1152.31 23.416H1150.35V27.288ZM1158.08 33V21.64H1164.88V23.416H1160.14V26.392H1163.97V28.168H1160.14V31.224H1165.14V33H1158.08ZM1169.2 31.224H1173.72V23.416H1170.68V24.264C1170.68 27.3147 1170.19 29.6347 1169.2 31.224ZM1165.92 31.224H1167.08C1168.18 29.56 1168.72 27.192 1168.72 24.12V21.64H1175.78V31.224H1177.04V35.24H1175.2V33H1167.83V35.24H1165.92V31.224ZM1179.03 33V21.64H1181.1V28.2L1180.98 29.96H1181.02C1181.38 29.224 1181.7 28.632 1181.98 28.184L1186.26 21.64H1188.31V33H1186.26V26.456L1186.38 24.696H1186.34C1185.99 25.4213 1185.68 26.008 1185.4 26.456L1181.08 33H1179.03ZM1193.66 33V23.416H1189.93V21.64H1199.43V23.416H1195.7V33H1193.66ZM1198.86 33L1202.85 21.64H1205.02L1209.01 33H1206.89L1205.92 30.088H1201.93L1200.97 33H1198.86ZM1202.45 28.408H1205.41L1204.4 25.368L1203.95 23.608H1203.92C1203.75 24.3547 1203.6 24.9413 1203.47 25.368L1202.45 28.408ZM1210.52 33V21.64H1212.58V31.224H1217.49V21.64H1219.56V31.224H1220.9V35.24H1219.06V33H1210.52ZM1222.86 33V21.64H1224.92V28.2L1224.81 29.96H1224.84C1225.21 29.224 1225.53 28.632 1225.8 28.184L1230.09 21.64H1232.14V33H1230.09V26.456L1230.2 24.696H1230.17C1229.82 25.4213 1229.51 26.008 1229.23 26.456L1224.91 33H1222.86ZM1234.91 33V21.64H1236.97V28.2L1236.86 29.96H1236.89C1237.25 29.224 1237.57 28.632 1237.85 28.184L1242.14 21.64H1244.19V33H1242.14V26.456L1242.25 24.696H1242.22C1241.87 25.4213 1241.55 26.008 1241.28 26.456L1236.96 33H1234.91Z" fill="#666666"/>
<rect x="1280" width="212" height="55" rx="27.5" fill="#F3F6FF"/>
<path d="M1305.6 33V21.64H1314.8V33H1312.74V23.416H1307.67V33H1305.6ZM1316.88 27.24C1316.88 25.608 1317.44 24.2373 1318.56 23.128C1319.69 22.008 1321.09 21.448 1322.76 21.448C1324.42 21.448 1325.81 22.008 1326.93 23.128C1328.06 24.2373 1328.63 25.608 1328.63 27.24C1328.63 28.9147 1328.06 30.328 1326.93 31.48C1325.81 32.6213 1324.42 33.192 1322.76 33.192C1321.09 33.192 1319.69 32.6213 1318.56 31.48C1317.44 30.328 1316.88 28.9147 1316.88 27.24ZM1319.01 27.24C1319.01 28.392 1319.37 29.3573 1320.1 30.136C1320.83 30.9147 1321.71 31.304 1322.76 31.304C1323.8 31.304 1324.69 30.9147 1325.41 30.136C1326.14 29.3573 1326.5 28.392 1326.5 27.24C1326.5 26.1413 1326.14 25.2187 1325.41 24.472C1324.69 23.7147 1323.8 23.336 1322.76 23.336C1321.71 23.336 1320.83 23.7147 1320.1 24.472C1319.37 25.2187 1319.01 26.1413 1319.01 27.24ZM1330.28 33L1331.21 21.64H1333.4L1335.64 27.256L1336.2 28.92H1336.23C1336.43 28.2587 1336.62 27.704 1336.79 27.256L1339.03 21.64H1341.22L1342.15 33H1340.09L1339.62 26.648C1339.6 26.424 1339.59 26.168 1339.59 25.88C1339.59 25.5813 1339.6 25.3413 1339.61 25.16V24.888H1339.58C1339.33 25.624 1339.12 26.2107 1338.95 26.648L1337.11 31.048H1335.32L1333.48 26.648L1332.86 24.872H1332.82C1332.86 25.5547 1332.85 26.1467 1332.81 26.648L1332.34 33H1330.28ZM1343.81 27.24C1343.81 25.608 1344.37 24.2373 1345.49 23.128C1346.62 22.008 1348.01 21.448 1349.68 21.448C1351.34 21.448 1352.73 22.008 1353.85 23.128C1354.98 24.2373 1355.55 25.608 1355.55 27.24C1355.55 28.9147 1354.98 30.328 1353.85 31.48C1352.73 32.6213 1351.34 33.192 1349.68 33.192C1348.01 33.192 1346.62 32.6213 1345.49 31.48C1344.37 30.328 1343.81 28.9147 1343.81 27.24ZM1345.93 27.24C1345.93 28.392 1346.3 29.3573 1347.02 30.136C1347.75 30.9147 1348.63 31.304 1349.68 31.304C1350.72 31.304 1351.61 30.9147 1352.33 30.136C1353.06 29.3573 1353.42 28.392 1353.42 27.24C1353.42 26.1413 1353.06 25.2187 1352.33 24.472C1351.61 23.7147 1350.72 23.336 1349.68 23.336C1348.63 23.336 1347.75 23.7147 1347.02 24.472C1346.3 25.2187 1345.93 26.1413 1345.93 27.24ZM1357.63 33V21.64H1359.7V31.224H1363.36V21.64H1365.43V31.224H1369.09V21.64H1371.14V31.224H1372.55V35.24H1370.69V33H1357.63ZM1374.48 33V21.64H1376.54V25.624H1378.77C1379.81 25.624 1380.66 25.9653 1381.33 26.648C1381.99 27.32 1382.32 28.216 1382.32 29.336C1382.32 30.424 1381.99 31.3093 1381.34 31.992C1380.69 32.664 1379.84 33 1378.8 33H1374.48ZM1376.54 31.224H1378.43C1378.99 31.224 1379.43 31.0587 1379.74 30.728C1380.06 30.3867 1380.22 29.9227 1380.22 29.336C1380.22 28.7493 1380.06 28.28 1379.73 27.928C1379.41 27.576 1378.96 27.4 1378.4 27.4H1376.54V31.224ZM1388.12 33V21.64H1390.18V26.264H1391.65L1394.33 21.64H1396.57L1393.35 27.048V27.08L1396.76 33H1394.42L1391.65 28.04H1390.18V33H1388.12ZM1398.02 32.408L1398.93 30.856C1399.41 31.2293 1399.84 31.416 1400.21 31.416C1400.71 31.416 1401.09 31.0853 1401.35 30.424L1396.9 21.64H1399.17L1401.59 26.712L1402.23 28.216H1402.26C1402.4 27.7147 1402.55 27.2187 1402.72 26.728L1404.55 21.64H1406.71L1403.2 30.616C1403.06 30.968 1402.92 31.2773 1402.77 31.544C1402.62 31.8107 1402.43 32.0773 1402.19 32.344C1401.96 32.6107 1401.68 32.8187 1401.36 32.968C1401.04 33.1173 1400.68 33.192 1400.29 33.192C1399.52 33.192 1398.76 32.9307 1398.02 32.408ZM1408.12 33V21.64H1412.5C1413.57 21.64 1414.44 21.9813 1415.11 22.664C1415.78 23.3467 1416.12 24.2373 1416.12 25.336C1416.12 26.4347 1415.78 27.336 1415.11 28.04C1414.44 28.7333 1413.57 29.08 1412.5 29.08H1410.18V33H1408.12ZM1410.18 27.288H1412.12C1412.72 27.288 1413.18 27.112 1413.51 26.76C1413.85 26.408 1414.02 25.9333 1414.02 25.336C1414.02 24.7493 1413.85 24.2853 1413.51 23.944C1413.18 23.592 1412.73 23.416 1412.15 23.416H1410.18V27.288ZM1416.09 33L1420.07 21.64H1422.25L1426.23 33H1424.12L1423.14 30.088H1419.16L1418.2 33H1416.09ZM1419.67 28.408H1422.63L1421.62 25.368L1421.18 23.608H1421.14C1420.97 24.3547 1420.82 24.9413 1420.7 25.368L1419.67 28.408ZM1429.38 33V23.416H1425.65V21.64H1435.16V23.416H1431.43V33H1429.38ZM1435.7 27.24C1435.7 25.608 1436.26 24.2373 1437.38 23.128C1438.51 22.008 1439.9 21.448 1441.57 21.448C1443.23 21.448 1444.62 22.008 1445.74 23.128C1446.87 24.2373 1447.44 25.608 1447.44 27.24C1447.44 28.9147 1446.87 30.328 1445.74 31.48C1444.62 32.6213 1443.23 33.192 1441.57 33.192C1439.9 33.192 1438.51 32.6213 1437.38 31.48C1436.26 30.328 1435.7 28.9147 1435.7 27.24ZM1437.82 27.24C1437.82 28.392 1438.19 29.3573 1438.91 30.136C1439.64 30.9147 1440.52 31.304 1441.57 31.304C1442.61 31.304 1443.5 30.9147 1444.22 30.136C1444.95 29.3573 1445.31 28.392 1445.31 27.24C1445.31 26.1413 1444.95 25.2187 1444.22 24.472C1443.5 23.7147 1442.61 23.336 1441.57 23.336C1440.52 23.336 1439.64 23.7147 1438.91 24.472C1438.19 25.2187 1437.82 26.1413 1437.82 27.24ZM1449.52 33V21.64H1453.91C1454.98 21.64 1455.84 21.9813 1456.52 22.664C1457.19 23.3467 1457.52 24.2373 1457.52 25.336C1457.52 26.4347 1457.19 27.336 1456.52 28.04C1455.84 28.7333 1454.98 29.08 1453.91 29.08H1451.59V33H1449.52ZM1451.59 27.288H1453.52C1454.12 27.288 1454.59 27.112 1454.92 26.76C1455.26 26.408 1455.43 25.9333 1455.43 25.336C1455.43 24.7493 1455.26 24.2853 1454.92 23.944C1454.59 23.592 1454.13 23.416 1453.56 23.416H1451.59V27.288ZM1457.5 33L1461.48 21.64H1463.66L1467.64 33H1465.53L1464.55 30.088H1460.57L1459.61 33H1457.5ZM1461.08 28.408H1464.04L1463.03 25.368L1462.58 23.608H1462.55C1462.38 24.3547 1462.23 24.9413 1462.1 25.368L1461.08 28.408Z" fill="#005DFF"/>
<rect x="1502" width="122" height="55" rx="27.5" fill="#F3F6FF"/>
<path d="M1529.47 31.224H1533.98V23.416H1530.94V24.264C1530.94 27.3147 1530.45 29.6347 1529.47 31.224ZM1526.19 31.224H1527.34C1528.44 29.56 1528.99 27.192 1528.99 24.12V21.64H1536.05V31.224H1537.31V35.24H1535.47V33H1528.09V35.24H1526.19V31.224ZM1539.3 33V21.64H1541.36V28.2L1541.25 29.96H1541.28C1541.64 29.224 1541.96 28.632 1542.24 28.184L1546.53 21.64H1548.58V33H1546.53V26.456L1546.64 24.696H1546.61C1546.26 25.4213 1545.94 26.008 1545.67 26.456L1541.35 33H1539.3ZM1551.34 33V21.64H1560.54V33H1558.48V23.416H1553.41V33H1551.34ZM1562.15 31.24C1563 31.1227 1563.62 30.5573 1564 29.544C1564.4 28.52 1564.59 26.92 1564.59 24.744V21.64H1571.62V33H1569.55V23.416H1566.56V24.776C1566.56 27.5707 1566.22 29.6507 1565.52 31.016C1564.83 32.3707 1563.7 33.0747 1562.15 33.128V31.24ZM1573.7 27.24C1573.7 25.608 1574.26 24.2373 1575.38 23.128C1576.51 22.008 1577.91 21.448 1579.58 21.448C1581.24 21.448 1582.63 22.008 1583.75 23.128C1584.88 24.2373 1585.45 25.608 1585.45 27.24C1585.45 28.9147 1584.88 30.328 1583.75 31.48C1582.63 32.6213 1581.24 33.192 1579.58 33.192C1577.91 33.192 1576.51 32.6213 1575.38 31.48C1574.26 30.328 1573.7 28.9147 1573.7 27.24ZM1575.83 27.24C1575.83 28.392 1576.19 29.3573 1576.92 30.136C1577.65 30.9147 1578.53 31.304 1579.58 31.304C1580.62 31.304 1581.51 30.9147 1582.23 30.136C1582.96 29.3573 1583.32 28.392 1583.32 27.24C1583.32 26.1413 1582.96 25.2187 1582.23 24.472C1581.51 23.7147 1580.62 23.336 1579.58 23.336C1578.53 23.336 1577.65 23.7147 1576.92 24.472C1576.19 25.2187 1575.83 26.1413 1575.83 27.24ZM1587.1 33L1588.03 21.64H1590.22L1592.46 27.256L1593.02 28.92H1593.05C1593.25 28.2587 1593.44 27.704 1593.61 27.256L1595.85 21.64H1598.04L1598.97 33H1596.91L1596.44 26.648C1596.42 26.424 1596.41 26.168 1596.41 25.88C1596.41 25.5813 1596.42 25.3413 1596.43 25.16V24.888H1596.4C1596.15 25.624 1595.94 26.2107 1595.77 26.648L1593.93 31.048H1592.14L1590.3 26.648L1589.68 24.872H1589.64C1589.68 25.5547 1589.67 26.1467 1589.63 26.648L1589.16 33H1587.1Z" fill="#666666"/>
<rect x="1634" width="248" height="55" rx="27.5" fill="#F3F6FF"/>
<path d="M1659.85 33V21.64H1661.92V26.264H1663.39L1666.06 21.64H1668.3L1665.08 27.048V27.08L1668.49 33H1666.16L1663.39 28.04H1661.92V33H1659.85ZM1668.9 31.24C1669.76 31.1227 1670.38 30.5573 1670.76 29.544C1671.15 28.52 1671.35 26.92 1671.35 24.744V21.64H1678.38V33H1676.31V23.416H1673.32V24.776C1673.32 27.5707 1672.97 29.6507 1672.28 31.016C1671.59 32.3707 1670.46 33.0747 1668.9 33.128V31.24ZM1681.13 33V21.64H1683.2V28.2L1683.09 29.96H1683.12C1683.48 29.224 1683.8 28.632 1684.08 28.184L1688.37 21.64H1690.41V33H1688.37V26.456L1688.48 24.696H1688.45C1688.09 25.4213 1687.78 26.008 1687.5 26.456L1683.18 33H1681.13ZM1693.18 33V21.64H1695.24V26.456H1700.44V21.64H1702.49V33H1700.44V28.232H1695.24V33H1693.18ZM1705.24 33V21.64H1707.31V28.2L1707.2 29.96H1707.23C1707.59 29.224 1707.91 28.632 1708.19 28.184L1712.48 21.64H1714.52V33H1712.48V26.456L1712.59 24.696H1712.56C1712.2 25.4213 1711.89 26.008 1711.61 26.456L1707.29 33H1705.24ZM1720.12 28.776C1718.96 28.776 1718.09 28.4827 1717.51 27.896C1716.94 27.2987 1716.65 26.456 1716.65 25.368V21.64H1718.75V24.904C1718.75 26.2373 1719.38 26.904 1720.65 26.904C1721.51 26.904 1722.29 26.68 1722.99 26.232V21.64H1725.08V33H1722.99V28.6L1723.02 28.072H1722.99C1722.07 28.5413 1721.11 28.776 1720.12 28.776ZM1727.85 33V21.64H1734.65V23.416H1729.92V26.392H1733.74V28.168H1729.92V31.224H1734.91V33H1727.85ZM1736.1 27.272C1736.1 25.608 1736.65 24.2213 1737.75 23.112C1738.85 22.0027 1740.25 21.448 1741.94 21.448C1743.67 21.448 1745.07 21.9653 1746.13 23L1745.14 24.536C1744.73 24.184 1744.24 23.896 1743.67 23.672C1743.12 23.448 1742.57 23.336 1742.04 23.336C1740.84 23.336 1739.91 23.7093 1739.24 24.456C1738.57 25.2027 1738.23 26.1307 1738.23 27.24C1738.23 28.36 1738.57 29.32 1739.25 30.12C1739.94 30.9093 1740.87 31.304 1742.05 31.304C1743.27 31.304 1744.37 30.824 1745.35 29.864L1746.44 31.352C1745.23 32.5787 1743.75 33.192 1741.97 33.192C1740.21 33.192 1738.8 32.632 1737.72 31.512C1736.64 30.392 1736.1 28.9787 1736.1 27.272ZM1748.21 33V21.64H1750.28V26.264H1751.75L1754.42 21.64H1756.66L1753.44 27.048V27.08L1756.85 33H1754.52L1751.75 28.04H1750.28V33H1748.21ZM1758.42 33V21.64H1760.48V28.2L1760.37 29.96H1760.4C1760.76 29.224 1761.08 28.632 1761.36 28.184L1765.65 21.64H1767.7V33H1765.65V26.456L1765.76 24.696H1765.73C1765.38 25.4213 1765.06 26.008 1764.78 26.456L1760.46 33H1758.42ZM1770.46 33V21.64H1777.26V23.416H1772.53V26.392H1776.35V28.168H1772.53V31.224H1777.52V33H1770.46ZM1783.57 33V21.64H1787.96C1789.02 21.64 1789.89 21.9813 1790.56 22.664C1791.24 23.3467 1791.57 24.2373 1791.57 25.336C1791.57 26.4347 1791.24 27.336 1790.56 28.04C1789.89 28.7333 1789.02 29.08 1787.96 29.08H1785.64V33H1783.57ZM1785.64 27.288H1787.57C1788.17 27.288 1788.63 27.112 1788.96 26.76C1789.3 26.408 1789.48 25.9333 1789.48 25.336C1789.48 24.7493 1789.3 24.2853 1788.96 23.944C1788.63 23.592 1788.18 23.416 1787.6 23.416H1785.64V27.288ZM1791.54 33L1795.53 21.64H1797.7L1801.69 33H1799.57L1798.6 30.088H1794.61L1793.65 33H1791.54ZM1795.13 28.408H1798.09L1797.08 25.368L1796.63 23.608H1796.6C1796.43 24.3547 1796.28 24.9413 1796.15 25.368L1795.13 28.408ZM1802.17 31.576L1803.29 30.2C1803.6 30.5307 1803.99 30.808 1804.44 31.032C1804.9 31.256 1805.37 31.368 1805.85 31.368C1806.47 31.368 1806.96 31.2133 1807.32 30.904C1807.69 30.5947 1807.87 30.168 1807.87 29.624C1807.87 29.1333 1807.7 28.7493 1807.37 28.472C1807.05 28.184 1806.61 28.04 1806.06 28.04H1804.67V26.376H1805.79C1806.3 26.376 1806.72 26.2267 1807.05 25.928C1807.38 25.6293 1807.55 25.256 1807.55 24.808C1807.55 24.3493 1807.4 23.976 1807.1 23.688C1806.8 23.3893 1806.37 23.24 1805.8 23.24C1804.94 23.24 1804.12 23.56 1803.34 24.2L1802.51 22.696C1803.51 21.864 1804.73 21.448 1806.16 21.448C1807.13 21.448 1807.95 21.7253 1808.62 22.28C1809.3 22.8347 1809.64 23.592 1809.64 24.552C1809.64 25.672 1809.12 26.5147 1808.08 27.08V27.112C1808.66 27.2933 1809.13 27.6133 1809.47 28.072C1809.81 28.5307 1809.98 29.0907 1809.98 29.752C1809.98 30.7973 1809.6 31.6347 1808.84 32.264C1808.1 32.8827 1807.16 33.192 1806.04 33.192C1805.32 33.192 1804.61 33.0533 1803.92 32.776C1803.23 32.488 1802.65 32.088 1802.17 31.576ZM1812.07 33V21.64H1819.05V23.416H1814.14V26.04H1816.41C1817.46 26.04 1818.32 26.36 1818.97 27C1819.63 27.6293 1819.96 28.4773 1819.96 29.544C1819.96 30.568 1819.63 31.4 1818.98 32.04C1818.33 32.68 1817.49 33 1816.46 33H1812.07ZM1814.14 31.224H1816.09C1816.65 31.224 1817.09 31.0747 1817.4 30.776C1817.71 30.4773 1817.86 30.0667 1817.86 29.544C1817.86 29.0213 1817.7 28.6053 1817.38 28.296C1817.06 27.976 1816.62 27.816 1816.06 27.816H1814.14V31.224ZM1821.26 27.24C1821.26 25.608 1821.82 24.2373 1822.94 23.128C1824.07 22.008 1825.47 21.448 1827.13 21.448C1828.79 21.448 1830.19 22.008 1831.31 23.128C1832.44 24.2373 1833 25.608 1833 27.24C1833 28.9147 1832.44 30.328 1831.31 31.48C1830.19 32.6213 1828.79 33.192 1827.13 33.192C1825.47 33.192 1824.07 32.6213 1822.94 31.48C1821.82 30.328 1821.26 28.9147 1821.26 27.24ZM1823.39 27.24C1823.39 28.392 1823.75 29.3573 1824.47 30.136C1825.2 30.9147 1826.09 31.304 1827.13 31.304C1828.18 31.304 1829.06 30.9147 1829.79 30.136C1830.51 29.3573 1830.87 28.392 1830.87 27.24C1830.87 26.1413 1830.51 25.2187 1829.79 24.472C1829.06 23.7147 1828.18 23.336 1827.13 23.336C1826.09 23.336 1825.2 23.7147 1824.47 24.472C1823.75 25.2187 1823.39 26.1413 1823.39 27.24ZM1835.09 33V21.64H1839.47C1840.54 21.64 1841.41 21.9813 1842.08 22.664C1842.75 23.3467 1843.09 24.2373 1843.09 25.336C1843.09 26.4347 1842.75 27.336 1842.08 28.04C1841.41 28.7333 1840.54 29.08 1839.47 29.08H1837.15V33H1835.09ZM1837.15 27.288H1839.09C1839.68 27.288 1840.15 27.112 1840.48 26.76C1840.82 26.408 1840.99 25.9333 1840.99 25.336C1840.99 24.7493 1840.82 24.2853 1840.48 23.944C1840.15 23.592 1839.69 23.416 1839.12 23.416H1837.15V27.288ZM1854.08 33V21.64H1856.13V33H1854.08ZM1844.88 33V21.64H1846.95V25.624H1849.06C1850.12 25.624 1850.97 25.9653 1851.62 26.648C1852.28 27.32 1852.61 28.216 1852.61 29.336C1852.61 30.424 1852.29 31.3093 1851.64 31.992C1850.99 32.664 1850.14 33 1849.11 33H1844.88ZM1846.95 31.224H1848.74C1849.31 31.224 1849.74 31.0587 1850.05 30.728C1850.36 30.3867 1850.52 29.9227 1850.52 29.336C1850.52 28.7493 1850.36 28.28 1850.04 27.928C1849.72 27.576 1849.27 27.4 1848.71 27.4H1846.95V31.224Z" fill="#005DFF"/>
</svg>
