<svg width="1882" height="55" viewBox="0 0 1882 55" fill="none" xmlns="http://www.w3.org/2000/svg">
<rect width="122" height="55" rx="27.5" fill="#F3F6FF"/>
<path d="M27.4701 31.224H31.9821V23.416H28.9421V24.264C28.9421 27.3147 28.4515 29.6347 27.4701 31.224ZM24.1901 31.224H25.3421C26.4408 29.56 26.9901 27.192 26.9901 24.12V21.64H34.0461V31.224H35.3101V35.24H33.4701V33H26.0941V35.24H24.1901V31.224ZM37.2979 33V21.64H39.3619V28.2L39.2499 29.96H39.2819C39.6445 29.224 39.9645 28.632 40.2419 28.184L44.5299 21.64H46.5779V33H44.5299V26.456L44.6419 24.696H44.6099C44.2579 25.4213 43.9432 26.008 43.6659 26.456L39.3459 33H37.2979ZM49.3448 33V21.64H58.5448V33H56.4808V23.416H51.4088V33H49.3448ZM60.1459 31.24C60.9992 31.1227 61.6179 30.5573 62.0019 29.544C62.3965 28.52 62.5939 26.92 62.5939 24.744V21.64H69.6179V33H67.5539V23.416H64.5619V24.776C64.5619 27.5707 64.2152 29.6507 63.5219 31.016C62.8285 32.3707 61.7032 33.0747 60.1459 33.128V31.24ZM71.704 27.24C71.704 25.608 72.264 24.2373 73.384 23.128C74.5147 22.008 75.912 21.448 77.576 21.448C79.24 21.448 80.632 22.008 81.752 23.128C82.8827 24.2373 83.448 25.608 83.448 27.24C83.448 28.9147 82.8827 30.328 81.752 31.48C80.632 32.6213 79.24 33.192 77.576 33.192C75.912 33.192 74.5147 32.6213 73.384 31.48C72.264 30.328 71.704 28.9147 71.704 27.24ZM73.832 27.24C73.832 28.392 74.1947 29.3573 74.92 30.136C75.6453 30.9147 76.5307 31.304 77.576 31.304C78.6213 31.304 79.5067 30.9147 80.232 30.136C80.9573 29.3573 81.32 28.392 81.32 27.24C81.32 26.1413 80.9573 25.2187 80.232 24.472C79.5067 23.7147 78.6213 23.336 77.576 23.336C76.5307 23.336 75.6453 23.7147 74.92 24.472C74.1947 25.2187 73.832 26.1413 73.832 27.24ZM85.1003 33L86.0283 21.64H88.2203L90.4603 27.256L91.0203 28.92H91.0523C91.2549 28.2587 91.4416 27.704 91.6123 27.256L93.8523 21.64H96.0443L96.9723 33H94.9083L94.4443 26.648C94.4229 26.424 94.4123 26.168 94.4123 25.88C94.4123 25.5813 94.4176 25.3413 94.4283 25.16V24.888H94.3963C94.1509 25.624 93.9429 26.2107 93.7723 26.648L91.9323 31.048H90.1403L88.3003 26.648L87.6763 24.872H87.6443C87.6763 25.5547 87.6709 26.1467 87.6283 26.648L87.1643 33H85.1003Z" fill="#005DFF"/>
<rect x="132" width="307" height="55" rx="27.5" fill="#F3F6FF"/>
<path d="M157.798 33V21.64H166.998V33H164.934V23.416H159.862V33H157.798ZM169.079 27.24C169.079 25.608 169.639 24.2373 170.759 23.128C171.89 22.008 173.287 21.448 174.951 21.448C176.615 21.448 178.007 22.008 179.127 23.128C180.258 24.2373 180.823 25.608 180.823 27.24C180.823 28.9147 180.258 30.328 179.127 31.48C178.007 32.6213 176.615 33.192 174.951 33.192C173.287 33.192 171.89 32.6213 170.759 31.48C169.639 30.328 169.079 28.9147 169.079 27.24ZM171.207 27.24C171.207 28.392 171.57 29.3573 172.295 30.136C173.02 30.9147 173.906 31.304 174.951 31.304C175.996 31.304 176.882 30.9147 177.607 30.136C178.332 29.3573 178.695 28.392 178.695 27.24C178.695 26.1413 178.332 25.2187 177.607 24.472C176.882 23.7147 175.996 23.336 174.951 23.336C173.906 23.336 173.02 23.7147 172.295 24.472C171.57 25.2187 171.207 26.1413 171.207 27.24ZM184.548 31.224H189.06V23.416H186.02V24.264C186.02 27.3147 185.53 29.6347 184.548 31.224ZM181.268 31.224H182.42C183.519 29.56 184.068 27.192 184.068 24.12V21.64H191.124V31.224H192.388V35.24H190.548V33H183.172V35.24H181.268V31.224ZM194.376 33V21.64H200.904V23.416H196.44V33H194.376ZM201.392 27.24C201.392 25.608 201.952 24.2373 203.072 23.128C204.202 22.008 205.6 21.448 207.264 21.448C208.928 21.448 210.32 22.008 211.44 23.128C212.57 24.2373 213.136 25.608 213.136 27.24C213.136 28.9147 212.57 30.328 211.44 31.48C210.32 32.6213 208.928 33.192 207.264 33.192C205.6 33.192 204.202 32.6213 203.072 31.48C201.952 30.328 201.392 28.9147 201.392 27.24ZM203.52 27.24C203.52 28.392 203.882 29.3573 204.608 30.136C205.333 30.9147 206.218 31.304 207.264 31.304C208.309 31.304 209.194 30.9147 209.92 30.136C210.645 29.3573 211.008 28.392 211.008 27.24C211.008 26.1413 210.645 25.2187 209.92 24.472C209.194 23.7147 208.309 23.336 207.264 23.336C206.218 23.336 205.333 23.7147 204.608 24.472C203.882 25.2187 203.52 26.1413 203.52 27.24ZM217.39 33V23.416H213.662V21.64H223.166V23.416H219.438V33H217.39ZM223.704 27.24C223.704 25.608 224.264 24.2373 225.384 23.128C226.515 22.008 227.912 21.448 229.576 21.448C231.24 21.448 232.632 22.008 233.752 23.128C234.883 24.2373 235.448 25.608 235.448 27.24C235.448 28.9147 234.883 30.328 233.752 31.48C232.632 32.6213 231.24 33.192 229.576 33.192C227.912 33.192 226.515 32.6213 225.384 31.48C224.264 30.328 223.704 28.9147 223.704 27.24ZM225.832 27.24C225.832 28.392 226.195 29.3573 226.92 30.136C227.645 30.9147 228.531 31.304 229.576 31.304C230.621 31.304 231.507 30.9147 232.232 30.136C232.957 29.3573 233.32 28.392 233.32 27.24C233.32 26.1413 232.957 25.2187 232.232 24.472C231.507 23.7147 230.621 23.336 229.576 23.336C228.531 23.336 227.645 23.7147 226.92 24.472C226.195 25.2187 225.832 26.1413 225.832 27.24ZM237.532 33V21.64H241.58C242.636 21.64 243.484 21.9013 244.124 22.424C244.775 22.936 245.1 23.6507 245.1 24.568C245.1 25.1013 244.978 25.5813 244.732 26.008C244.487 26.4347 244.151 26.7653 243.724 27V27.032C244.322 27.2027 244.775 27.5387 245.084 28.04C245.404 28.5413 245.564 29.096 245.564 29.704C245.564 30.7813 245.191 31.6027 244.444 32.168C243.698 32.7227 242.764 33 241.644 33H237.532ZM239.596 26.28H241.596C242.034 26.28 242.375 26.1467 242.62 25.88C242.876 25.6027 243.004 25.2507 243.004 24.824C243.004 24.408 242.876 24.072 242.62 23.816C242.375 23.5493 242.023 23.416 241.564 23.416H239.596V26.28ZM239.596 31.224H241.804C242.316 31.224 242.716 31.0747 243.004 30.776C243.303 30.4667 243.452 30.0667 243.452 29.576C243.452 29.096 243.303 28.7067 243.004 28.408C242.716 28.0987 242.316 27.944 241.804 27.944H239.596V31.224ZM247.657 33V21.64H249.721V26.264H251.193L253.865 21.64H256.105L252.889 27.048V27.08L256.297 33H253.961L251.193 28.04H249.721V33H247.657ZM256.612 33L260.596 21.64H262.772L266.756 33H264.644L263.668 30.088H259.684L258.724 33H256.612ZM260.196 28.408H263.156L262.148 25.368L261.7 23.608H261.668C261.498 24.3547 261.348 24.9413 261.22 25.368L260.196 28.408ZM272.267 33V21.64H274.331V26.264H275.803L278.475 21.64H280.715L277.499 27.048V27.08L280.907 33H278.571L275.803 28.04H274.331V33H272.267ZM285.222 33L289.206 21.64H291.382L295.366 33H293.254L292.278 30.088H288.294L287.334 33H285.222ZM288.806 28.408H291.766L290.758 25.368L290.31 23.608H290.278C290.107 24.3547 289.958 24.9413 289.83 25.368L288.806 28.408ZM296.876 33V21.64H298.94V26.264H300.412L303.084 21.64H305.324L302.108 27.048V27.08L305.516 33H303.18L300.412 28.04H298.94V33H296.876ZM307.079 33V21.64H309.143V26.264H310.615L313.287 21.64H315.527L312.311 27.048V27.08L315.719 33H313.383L310.615 28.04H309.143V33H307.079ZM317.282 33V21.64H321.666C322.733 21.64 323.602 21.9813 324.274 22.664C324.946 23.3467 325.282 24.2373 325.282 25.336C325.282 26.4347 324.946 27.336 324.274 28.04C323.602 28.7333 322.733 29.08 321.666 29.08H319.346V33H317.282ZM319.346 27.288H321.282C321.88 27.288 322.344 27.112 322.674 26.76C323.016 26.408 323.186 25.9333 323.186 25.336C323.186 24.7493 323.016 24.2853 322.674 23.944C322.344 23.592 321.89 23.416 321.314 23.416H319.346V27.288ZM327.079 33V21.64H333.879V23.416H329.143V26.392H332.967V28.168H329.143V31.224H334.135V33H327.079ZM338.205 31.224H342.717V23.416H339.677V24.264C339.677 27.3147 339.186 29.6347 338.205 31.224ZM334.925 31.224H336.077C337.175 29.56 337.725 27.192 337.725 24.12V21.64H344.781V31.224H346.045V35.24H344.205V33H336.829V35.24H334.925V31.224ZM348.032 33V21.64H350.096V28.2L349.984 29.96H350.016C350.379 29.224 350.699 28.632 350.976 28.184L355.264 21.64H357.312V33H355.264V26.456L355.376 24.696H355.344C354.992 25.4213 354.678 26.008 354.4 26.456L350.08 33H348.032ZM362.655 33V23.416H358.927V21.64H368.431V23.416H364.703V33H362.655ZM367.862 33L371.846 21.64H374.022L378.006 33H375.894L374.918 30.088H370.934L369.974 33H367.862ZM371.446 28.408H374.406L373.398 25.368L372.95 23.608H372.918C372.748 24.3547 372.598 24.9413 372.47 25.368L371.446 28.408ZM379.517 33V21.64H381.581V31.224H386.493V21.64H388.557V31.224H389.901V35.24H388.061V33H379.517ZM391.86 33V21.64H393.924V28.2L393.812 29.96H393.844C394.207 29.224 394.527 28.632 394.804 28.184L399.092 21.64H401.14V33H399.092V26.456L399.204 24.696H399.172C398.82 25.4213 398.506 26.008 398.228 26.456L393.908 33H391.86ZM403.907 33V21.64H405.971V28.2L405.859 29.96H405.891C406.254 29.224 406.574 28.632 406.851 28.184L411.139 21.64H413.187V33H411.139V26.456L411.251 24.696H411.219C410.867 25.4213 410.553 26.008 410.275 26.456L405.955 33H403.907Z" fill="#666666"/>
<rect x="449" width="297" height="55" rx="27.5" fill="#F3F6FF"/>
<path d="M474.696 33V21.64H479.08C480.147 21.64 481.016 21.9813 481.688 22.664C482.36 23.3467 482.696 24.2373 482.696 25.336C482.696 26.4347 482.36 27.336 481.688 28.04C481.016 28.7333 480.147 29.08 479.08 29.08H476.76V33H474.696ZM476.76 27.288H478.696C479.294 27.288 479.758 27.112 480.088 26.76C480.43 26.408 480.6 25.9333 480.6 25.336C480.6 24.7493 480.43 24.2853 480.088 23.944C479.758 23.592 479.304 23.416 478.728 23.416H476.76V27.288ZM484.493 33V21.64H491.293V23.416H486.557V26.392H490.381V28.168H486.557V31.224H491.549V33H484.493ZM493.603 33V21.64H495.667V26.264H497.139L499.811 21.64H502.051L498.835 27.048V27.08L502.243 33H499.907L497.139 28.04H495.667V33H493.603ZM502.837 27.24C502.837 25.608 503.397 24.2373 504.517 23.128C505.647 22.008 507.045 21.448 508.709 21.448C510.373 21.448 511.765 22.008 512.885 23.128C514.015 24.2373 514.581 25.608 514.581 27.24C514.581 28.9147 514.015 30.328 512.885 31.48C511.765 32.6213 510.373 33.192 508.709 33.192C507.045 33.192 505.647 32.6213 504.517 31.48C503.397 30.328 502.837 28.9147 502.837 27.24ZM504.965 27.24C504.965 28.392 505.327 29.3573 506.053 30.136C506.778 30.9147 507.663 31.304 508.709 31.304C509.754 31.304 510.639 30.9147 511.365 30.136C512.09 29.3573 512.453 28.392 512.453 27.24C512.453 26.1413 512.09 25.2187 511.365 24.472C510.639 23.7147 509.754 23.336 508.709 23.336C507.663 23.336 506.778 23.7147 506.053 24.472C505.327 25.2187 504.965 26.1413 504.965 27.24ZM516.233 33L517.161 21.64H519.353L521.593 27.256L522.153 28.92H522.185C522.388 28.2587 522.574 27.704 522.745 27.256L524.985 21.64H527.177L528.105 33H526.041L525.577 26.648C525.556 26.424 525.545 26.168 525.545 25.88C525.545 25.5813 525.55 25.3413 525.561 25.16V24.888H525.529C525.284 25.624 525.076 26.2107 524.905 26.648L523.065 31.048H521.273L519.433 26.648L518.809 24.872H518.777C518.809 25.5547 518.804 26.1467 518.761 26.648L518.297 33H516.233ZM530.431 33V21.64H537.231V23.416H532.495V26.392H536.319V28.168H532.495V31.224H537.487V33H530.431ZM539.54 33V21.64H541.604V26.456H546.804V21.64H548.852V33H546.804V28.232H541.604V33H539.54ZM553.619 31.224H558.131V23.416H555.091V24.264C555.091 27.3147 554.6 29.6347 553.619 31.224ZM550.339 31.224H551.491C552.589 29.56 553.139 27.192 553.139 24.12V21.64H560.195V31.224H561.459V35.24H559.619V33H552.243V35.24H550.339V31.224ZM562.198 33L566.182 21.64H568.358L572.342 33H570.23L569.254 30.088H565.27L564.31 33H562.198ZM565.782 28.408H568.742L567.734 25.368L567.286 23.608H567.254C567.084 24.3547 566.934 24.9413 566.806 25.368L565.782 28.408ZM575.491 33V23.416H571.763V21.64H581.267V23.416H577.539V33H575.491ZM582.884 33V21.64H589.684V23.416H584.948V26.392H588.772V28.168H584.948V31.224H589.94V33H582.884ZM590.841 31.24C591.695 31.1227 592.313 30.5573 592.697 29.544C593.092 28.52 593.289 26.92 593.289 24.744V21.64H600.313V33H598.249V23.416H595.257V24.776C595.257 27.5707 594.911 29.6507 594.217 31.016C593.524 32.3707 592.399 33.0747 590.841 33.128V31.24ZM603.071 33V21.64H605.135V25.624H607.359C608.405 25.624 609.258 25.9653 609.919 26.648C610.581 27.32 610.911 28.216 610.911 29.336C610.911 30.424 610.586 31.3093 609.935 31.992C609.285 32.664 608.437 33 607.391 33H603.071ZM605.135 31.224H607.023C607.589 31.224 608.026 31.0587 608.335 30.728C608.655 30.3867 608.815 29.9227 608.815 29.336C608.815 28.7493 608.65 28.28 608.319 27.928C607.999 27.576 607.557 27.4 606.991 27.4H605.135V31.224ZM612.712 33V21.64H614.776V26.456H619.976V21.64H622.024V33H619.976V28.232H614.776V33H612.712ZM624.102 27.24C624.102 25.608 624.662 24.2373 625.782 23.128C626.913 22.008 628.31 21.448 629.974 21.448C631.638 21.448 633.03 22.008 634.15 23.128C635.281 24.2373 635.846 25.608 635.846 27.24C635.846 28.9147 635.281 30.328 634.15 31.48C633.03 32.6213 631.638 33.192 629.974 33.192C628.31 33.192 626.913 32.6213 625.782 31.48C624.662 30.328 624.102 28.9147 624.102 27.24ZM626.23 27.24C626.23 28.392 626.593 29.3573 627.318 30.136C628.044 30.9147 628.929 31.304 629.974 31.304C631.02 31.304 631.905 30.9147 632.63 30.136C633.356 29.3573 633.718 28.392 633.718 27.24C633.718 26.1413 633.356 25.2187 632.63 24.472C631.905 23.7147 631.02 23.336 629.974 23.336C628.929 23.336 628.044 23.7147 627.318 24.472C626.593 25.2187 626.23 26.1413 626.23 27.24ZM637.931 33V21.64H644.731V23.416H639.995V26.392H643.819V28.168H639.995V31.224H644.987V33H637.931ZM651.04 33V21.64H660.24V33H658.176V23.416H653.104V33H651.04ZM662.993 33V21.64H665.057V28.2L664.945 29.96H664.977C665.34 29.224 665.66 28.632 665.937 28.184L670.225 21.64H672.273V33H670.225V26.456L670.337 24.696H670.305C669.953 25.4213 669.639 26.008 669.361 26.456L665.041 33H662.993ZM674.384 27.272C674.384 25.608 674.933 24.2213 676.032 23.112C677.131 22.0027 678.528 21.448 680.224 21.448C681.952 21.448 683.349 21.9653 684.416 23L683.424 24.536C683.008 24.184 682.517 23.896 681.952 23.672C681.397 23.448 680.853 23.336 680.32 23.336C679.125 23.336 678.192 23.7093 677.52 24.456C676.848 25.2027 676.512 26.1307 676.512 27.24C676.512 28.36 676.853 29.32 677.536 30.12C678.219 30.9093 679.152 31.304 680.336 31.304C681.552 31.304 682.651 30.824 683.632 29.864L684.72 31.352C683.515 32.5787 682.027 33.192 680.256 33.192C678.496 33.192 677.077 32.632 676 31.512C674.923 30.392 674.384 28.9787 674.384 27.272ZM686.493 33V21.64H688.557V25.624H690.781C691.827 25.624 692.68 25.9653 693.341 26.648C694.003 27.32 694.333 28.216 694.333 29.336C694.333 30.424 694.008 31.3093 693.357 31.992C692.707 32.664 691.859 33 690.813 33H686.493ZM688.557 31.224H690.445C691.011 31.224 691.448 31.0587 691.757 30.728C692.077 30.3867 692.237 29.9227 692.237 29.336C692.237 28.7493 692.072 28.28 691.741 27.928C691.421 27.576 690.979 27.4 690.413 27.4H688.557V31.224ZM695.702 33L696.63 21.64H698.822L701.062 27.256L701.622 28.92H701.654C701.856 28.2587 702.043 27.704 702.214 27.256L704.454 21.64H706.646L707.574 33H705.51L705.046 26.648C705.024 26.424 705.014 26.168 705.014 25.88C705.014 25.5813 705.019 25.3413 705.03 25.16V24.888H704.998C704.752 25.624 704.544 26.2107 704.374 26.648L702.534 31.048H700.742L698.902 26.648L698.278 24.872H698.246C698.278 25.5547 698.272 26.1467 698.23 26.648L697.766 33H695.702ZM709.227 27.24C709.227 25.608 709.787 24.2373 710.907 23.128C712.038 22.008 713.435 21.448 715.099 21.448C716.763 21.448 718.155 22.008 719.275 23.128C720.406 24.2373 720.971 25.608 720.971 27.24C720.971 28.9147 720.406 30.328 719.275 31.48C718.155 32.6213 716.763 33.192 715.099 33.192C713.435 33.192 712.038 32.6213 710.907 31.48C709.787 30.328 709.227 28.9147 709.227 27.24ZM711.355 27.24C711.355 28.392 711.718 29.3573 712.443 30.136C713.169 30.9147 714.054 31.304 715.099 31.304C716.145 31.304 717.03 30.9147 717.755 30.136C718.481 29.3573 718.843 28.392 718.843 27.24C718.843 26.1413 718.481 25.2187 717.755 24.472C717.03 23.7147 716.145 23.336 715.099 23.336C714.054 23.336 713.169 23.7147 712.443 24.472C711.718 25.2187 711.355 26.1413 711.355 27.24Z" fill="#005DFF"/>
<rect x="756" width="248" height="55" rx="27.5" fill="#F3F6FF"/>
<path d="M781.853 33V21.64H783.917V26.264H785.389L788.061 21.64H790.301L787.085 27.048V27.08L790.493 33H788.157L785.389 28.04H783.917V33H781.853ZM790.904 31.24C791.757 31.1227 792.376 30.5573 792.76 29.544C793.154 28.52 793.352 26.92 793.352 24.744V21.64H800.376V33H798.312V23.416H795.32V24.776C795.32 27.5707 794.973 29.6507 794.28 31.016C793.586 32.3707 792.461 33.0747 790.904 33.128V31.24ZM803.134 33V21.64H805.198V28.2L805.086 29.96H805.118C805.48 29.224 805.8 28.632 806.078 28.184L810.366 21.64H812.414V33H810.366V26.456L810.478 24.696H810.446C810.094 25.4213 809.779 26.008 809.502 26.456L805.182 33H803.134ZM815.181 33V21.64H817.245V26.456H822.445V21.64H824.493V33H822.445V28.232H817.245V33H815.181ZM827.243 33V21.64H829.307V28.2L829.195 29.96H829.227C829.59 29.224 829.91 28.632 830.187 28.184L834.475 21.64H836.523V33H834.475V26.456L834.587 24.696H834.555C834.203 25.4213 833.889 26.008 833.611 26.456L829.291 33H827.243ZM842.122 28.776C840.959 28.776 840.09 28.4827 839.514 27.896C838.938 27.2987 838.65 26.456 838.65 25.368V21.64H840.746V24.904C840.746 26.2373 841.381 26.904 842.65 26.904C843.514 26.904 844.293 26.68 844.986 26.232V21.64H847.082V33H844.986V28.6L845.018 28.072H844.986C844.069 28.5413 843.114 28.776 842.122 28.776ZM849.853 33V21.64H856.653V23.416H851.917V26.392H855.741V28.168H851.917V31.224H856.909V33H849.853ZM858.103 27.272C858.103 25.608 858.652 24.2213 859.751 23.112C860.849 22.0027 862.247 21.448 863.943 21.448C865.671 21.448 867.068 21.9653 868.135 23L867.143 24.536C866.727 24.184 866.236 23.896 865.671 23.672C865.116 23.448 864.572 23.336 864.039 23.336C862.844 23.336 861.911 23.7093 861.239 24.456C860.567 25.2027 860.231 26.1307 860.231 27.24C860.231 28.36 860.572 29.32 861.255 30.12C861.937 30.9093 862.871 31.304 864.055 31.304C865.271 31.304 866.369 30.824 867.351 29.864L868.439 31.352C867.233 32.5787 865.745 33.192 863.975 33.192C862.215 33.192 860.796 32.632 859.719 31.512C858.641 30.392 858.103 28.9787 858.103 27.272ZM870.212 33V21.64H872.276V26.264H873.748L876.42 21.64H878.66L875.444 27.048V27.08L878.852 33H876.516L873.748 28.04H872.276V33H870.212ZM880.415 33V21.64H882.479V28.2L882.367 29.96H882.399C882.762 29.224 883.082 28.632 883.359 28.184L887.647 21.64H889.695V33H887.647V26.456L887.759 24.696H887.727C887.375 25.4213 887.06 26.008 886.783 26.456L882.463 33H880.415ZM892.462 33V21.64H899.262V23.416H894.526V26.392H898.35V28.168H894.526V31.224H899.518V33H892.462ZM905.571 33V21.64H909.955C911.022 21.64 911.891 21.9813 912.563 22.664C913.235 23.3467 913.571 24.2373 913.571 25.336C913.571 26.4347 913.235 27.336 912.563 28.04C911.891 28.7333 911.022 29.08 909.955 29.08H907.635V33H905.571ZM907.635 27.288H909.571C910.169 27.288 910.633 27.112 910.963 26.76C911.305 26.408 911.475 25.9333 911.475 25.336C911.475 24.7493 911.305 24.2853 910.963 23.944C910.633 23.592 910.179 23.416 909.603 23.416H907.635V27.288ZM913.542 33L917.526 21.64H919.702L923.686 33H921.574L920.598 30.088H916.614L915.654 33H913.542ZM917.126 28.408H920.086L919.078 25.368L918.63 23.608H918.598C918.427 24.3547 918.278 24.9413 918.15 25.368L917.126 28.408ZM924.172 31.576L925.292 30.2C925.602 30.5307 925.986 30.808 926.444 31.032C926.903 31.256 927.372 31.368 927.852 31.368C928.471 31.368 928.962 31.2133 929.324 30.904C929.687 30.5947 929.868 30.168 929.868 29.624C929.868 29.1333 929.703 28.7493 929.372 28.472C929.052 28.184 928.615 28.04 928.06 28.04H926.668V26.376H927.788C928.3 26.376 928.722 26.2267 929.052 25.928C929.383 25.6293 929.548 25.256 929.548 24.808C929.548 24.3493 929.399 23.976 929.1 23.688C928.802 23.3893 928.37 23.24 927.804 23.24C926.94 23.24 926.119 23.56 925.34 24.2L924.508 22.696C925.511 21.864 926.727 21.448 928.156 21.448C929.127 21.448 929.948 21.7253 930.62 22.28C931.303 22.8347 931.644 23.592 931.644 24.552C931.644 25.672 931.122 26.5147 930.076 27.08V27.112C930.663 27.2933 931.127 27.6133 931.468 28.072C931.81 28.5307 931.98 29.0907 931.98 29.752C931.98 30.7973 931.602 31.6347 930.844 32.264C930.098 32.8827 929.164 33.192 928.044 33.192C927.319 33.192 926.61 33.0533 925.916 32.776C925.234 32.488 924.652 32.088 924.172 31.576ZM934.071 33V21.64H941.047V23.416H936.135V26.04H938.407C939.463 26.04 940.317 26.36 940.967 27C941.629 27.6293 941.959 28.4773 941.959 29.544C941.959 30.568 941.634 31.4 940.983 32.04C940.333 32.68 939.49 33 938.455 33H934.071ZM936.135 31.224H938.087C938.653 31.224 939.09 31.0747 939.399 30.776C939.709 30.4773 939.863 30.0667 939.863 29.544C939.863 29.0213 939.703 28.6053 939.383 28.296C939.063 27.976 938.621 27.816 938.055 27.816H936.135V31.224ZM943.259 27.24C943.259 25.608 943.819 24.2373 944.939 23.128C946.069 22.008 947.467 21.448 949.131 21.448C950.795 21.448 952.187 22.008 953.307 23.128C954.437 24.2373 955.003 25.608 955.003 27.24C955.003 28.9147 954.437 30.328 953.307 31.48C952.187 32.6213 950.795 33.192 949.131 33.192C947.467 33.192 946.069 32.6213 944.939 31.48C943.819 30.328 943.259 28.9147 943.259 27.24ZM945.387 27.24C945.387 28.392 945.749 29.3573 946.475 30.136C947.2 30.9147 948.085 31.304 949.131 31.304C950.176 31.304 951.061 30.9147 951.787 30.136C952.512 29.3573 952.875 28.392 952.875 27.24C952.875 26.1413 952.512 25.2187 951.787 24.472C951.061 23.7147 950.176 23.336 949.131 23.336C948.085 23.336 947.2 23.7147 946.475 24.472C945.749 25.2187 945.387 26.1413 945.387 27.24ZM957.087 33V21.64H961.471C962.538 21.64 963.407 21.9813 964.079 22.664C964.751 23.3467 965.087 24.2373 965.087 25.336C965.087 26.4347 964.751 27.336 964.079 28.04C963.407 28.7333 962.538 29.08 961.471 29.08H959.151V33H957.087ZM959.151 27.288H961.087C961.684 27.288 962.148 27.112 962.479 26.76C962.82 26.408 962.991 25.9333 962.991 25.336C962.991 24.7493 962.82 24.2853 962.479 23.944C962.148 23.592 961.695 23.416 961.119 23.416H959.151V27.288ZM976.084 33V21.64H978.132V33H976.084ZM966.884 33V21.64H968.948V25.624H971.06C972.116 25.624 972.969 25.9653 973.62 26.648C974.281 27.32 974.612 28.216 974.612 29.336C974.612 30.424 974.286 31.3093 973.636 31.992C972.985 32.664 972.142 33 971.108 33H966.884ZM968.948 31.224H970.74C971.305 31.224 971.742 31.0587 972.052 30.728C972.361 30.3867 972.516 29.9227 972.516 29.336C972.516 28.7493 972.356 28.28 972.036 27.928C971.716 27.576 971.273 27.4 970.708 27.4H968.948V31.224Z" fill="#666666"/>
<rect x="1014" width="308" height="55" rx="27.5" fill="#F3F6FF"/>
<path d="M1039.72 33V21.64H1041.78V26.264H1043.26L1045.93 21.64H1048.17L1044.95 27.048V27.08L1048.36 33H1046.02L1043.26 28.04H1041.78V33H1039.72ZM1048.77 31.24C1049.62 31.1227 1050.24 30.5573 1050.63 29.544C1051.02 28.52 1051.22 26.92 1051.22 24.744V21.64H1058.24V33H1056.18V23.416H1053.19V24.776C1053.19 27.5707 1052.84 29.6507 1052.15 31.016C1051.45 32.3707 1050.33 33.0747 1048.77 33.128V31.24ZM1061 33V21.64H1063.07V28.2L1062.95 29.96H1062.99C1063.35 29.224 1063.67 28.632 1063.95 28.184L1068.23 21.64H1070.28V33H1068.23V26.456L1068.35 24.696H1068.31C1067.96 25.4213 1067.65 26.008 1067.37 26.456L1063.05 33H1061ZM1073.05 33V21.64H1075.11V26.456H1080.31V21.64H1082.36V33H1080.31V28.232H1075.11V33H1073.05ZM1085.11 33V21.64H1087.17V28.2L1087.06 29.96H1087.09C1087.46 29.224 1087.78 28.632 1088.05 28.184L1092.34 21.64H1094.39V33H1092.34V26.456L1092.45 24.696H1092.42C1092.07 25.4213 1091.76 26.008 1091.48 26.456L1087.16 33H1085.11ZM1099.99 28.776C1098.83 28.776 1097.96 28.4827 1097.38 27.896C1096.81 27.2987 1096.52 26.456 1096.52 25.368V21.64H1098.61V24.904C1098.61 26.2373 1099.25 26.904 1100.52 26.904C1101.38 26.904 1102.16 26.68 1102.85 26.232V21.64H1104.95V33H1102.85V28.6L1102.89 28.072H1102.85C1101.94 28.5413 1100.98 28.776 1099.99 28.776ZM1107.72 33V21.64H1114.52V23.416H1109.78V26.392H1113.61V28.168H1109.78V31.224H1114.78V33H1107.72ZM1115.97 27.272C1115.97 25.608 1116.52 24.2213 1117.62 23.112C1118.72 22.0027 1120.11 21.448 1121.81 21.448C1123.54 21.448 1124.94 21.9653 1126 23L1125.01 24.536C1124.59 24.184 1124.1 23.896 1123.54 23.672C1122.98 23.448 1122.44 23.336 1121.91 23.336C1120.71 23.336 1119.78 23.7093 1119.11 24.456C1118.43 25.2027 1118.1 26.1307 1118.1 27.24C1118.1 28.36 1118.44 29.32 1119.12 30.12C1119.8 30.9093 1120.74 31.304 1121.92 31.304C1123.14 31.304 1124.24 30.824 1125.22 29.864L1126.31 31.352C1125.1 32.5787 1123.61 33.192 1121.84 33.192C1120.08 33.192 1118.66 32.632 1117.59 31.512C1116.51 30.392 1115.97 28.9787 1115.97 27.272ZM1128.08 33V21.64H1130.14V26.264H1131.62L1134.29 21.64H1136.53L1133.31 27.048V27.08L1136.72 33H1134.38L1131.62 28.04H1130.14V33H1128.08ZM1138.28 33V21.64H1140.35V28.2L1140.23 29.96H1140.27C1140.63 29.224 1140.95 28.632 1141.23 28.184L1145.51 21.64H1147.56V33H1145.51V26.456L1145.63 24.696H1145.59C1145.24 25.4213 1144.93 26.008 1144.65 26.456L1140.33 33H1138.28ZM1150.33 33V21.64H1157.13V23.416H1152.39V26.392H1156.22V28.168H1152.39V31.224H1157.39V33H1150.33ZM1163.44 33V21.64H1167.82C1168.89 21.64 1169.76 21.9813 1170.43 22.664C1171.1 23.3467 1171.44 24.2373 1171.44 25.336C1171.44 26.4347 1171.1 27.336 1170.43 28.04C1169.76 28.7333 1168.89 29.08 1167.82 29.08H1165.5V33H1163.44ZM1165.5 27.288H1167.44C1168.04 27.288 1168.5 27.112 1168.83 26.76C1169.17 26.408 1169.34 25.9333 1169.34 25.336C1169.34 24.7493 1169.17 24.2853 1168.83 23.944C1168.5 23.592 1168.05 23.416 1167.47 23.416H1165.5V27.288ZM1173.24 33V21.64H1180.04V23.416H1175.3V26.392H1179.12V28.168H1175.3V31.224H1180.29V33H1173.24ZM1182.34 33V21.64H1184.41V26.264H1185.88L1188.55 21.64H1190.79L1187.58 27.048V27.08L1190.98 33H1188.65L1185.88 28.04H1184.41V33H1182.34ZM1191.58 27.24C1191.58 25.608 1192.14 24.2373 1193.26 23.128C1194.39 22.008 1195.79 21.448 1197.45 21.448C1199.12 21.448 1200.51 22.008 1201.63 23.128C1202.76 24.2373 1203.32 25.608 1203.32 27.24C1203.32 28.9147 1202.76 30.328 1201.63 31.48C1200.51 32.6213 1199.12 33.192 1197.45 33.192C1195.79 33.192 1194.39 32.6213 1193.26 31.48C1192.14 30.328 1191.58 28.9147 1191.58 27.24ZM1193.71 27.24C1193.71 28.392 1194.07 29.3573 1194.8 30.136C1195.52 30.9147 1196.41 31.304 1197.45 31.304C1198.5 31.304 1199.38 30.9147 1200.11 30.136C1200.83 29.3573 1201.2 28.392 1201.2 27.24C1201.2 26.1413 1200.83 25.2187 1200.11 24.472C1199.38 23.7147 1198.5 23.336 1197.45 23.336C1196.41 23.336 1195.52 23.7147 1194.8 24.472C1194.07 25.2187 1193.71 26.1413 1193.71 27.24ZM1204.98 33L1205.9 21.64H1208.1L1210.34 27.256L1210.9 28.92H1210.93C1211.13 28.2587 1211.32 27.704 1211.49 27.256L1213.73 21.64H1215.92L1216.85 33H1214.78L1214.32 26.648C1214.3 26.424 1214.29 26.168 1214.29 25.88C1214.29 25.5813 1214.29 25.3413 1214.3 25.16V24.888H1214.27C1214.03 25.624 1213.82 26.2107 1213.65 26.648L1211.81 31.048H1210.02L1208.18 26.648L1207.55 24.872H1207.52C1207.55 25.5547 1207.55 26.1467 1207.5 26.648L1207.04 33H1204.98ZM1219.17 33V21.64H1225.97V23.416H1221.24V26.392H1225.06V28.168H1221.24V31.224H1226.23V33H1219.17ZM1228.28 33V21.64H1230.35V26.456H1235.55V21.64H1237.59V33H1235.55V28.232H1230.35V33H1228.28ZM1242.36 31.224H1246.87V23.416H1243.83V24.264C1243.83 27.3147 1243.34 29.6347 1242.36 31.224ZM1239.08 31.224H1240.23C1241.33 29.56 1241.88 27.192 1241.88 24.12V21.64H1248.94V31.224H1250.2V35.24H1248.36V33H1240.98V35.24H1239.08V31.224ZM1250.94 33L1254.92 21.64H1257.1L1261.08 33H1258.97L1258 30.088H1254.01L1253.05 33H1250.94ZM1254.52 28.408H1257.48L1256.48 25.368L1256.03 23.608H1256C1255.83 24.3547 1255.68 24.9413 1255.55 25.368L1254.52 28.408ZM1262.59 33V21.64H1264.66V31.224H1269.57V21.64H1271.63V31.224H1272.98V35.24H1271.14V33H1262.59ZM1274.94 33V21.64H1277V28.2L1276.89 29.96H1276.92C1277.29 29.224 1277.61 28.632 1277.88 28.184L1282.17 21.64H1284.22V33H1282.17V26.456L1282.28 24.696H1282.25C1281.9 25.4213 1281.58 26.008 1281.31 26.456L1276.99 33H1274.94ZM1286.99 33V21.64H1289.05V28.2L1288.94 29.96H1288.97C1289.33 29.224 1289.65 28.632 1289.93 28.184L1294.22 21.64H1296.27V33H1294.22V26.456L1294.33 24.696H1294.3C1293.95 25.4213 1293.63 26.008 1293.35 26.456L1289.03 33H1286.99Z" fill="#005DFF"/>
<rect x="1332" width="328" height="55" rx="27.5" fill="#F3F6FF"/>
<path d="M1359.81 31.224H1364.32V23.416H1361.28V24.264C1361.28 27.3147 1360.79 29.6347 1359.81 31.224ZM1356.53 31.224H1357.68C1358.78 29.56 1359.33 27.192 1359.33 24.12V21.64H1366.38V31.224H1367.65V35.24H1365.81V33H1358.43V35.24H1356.53V31.224ZM1368.77 27.24C1368.77 25.608 1369.33 24.2373 1370.45 23.128C1371.58 22.008 1372.98 21.448 1374.65 21.448C1376.31 21.448 1377.7 22.008 1378.82 23.128C1379.95 24.2373 1380.52 25.608 1380.52 27.24C1380.52 28.9147 1379.95 30.328 1378.82 31.48C1377.7 32.6213 1376.31 33.192 1374.65 33.192C1372.98 33.192 1371.58 32.6213 1370.45 31.48C1369.33 30.328 1368.77 28.9147 1368.77 27.24ZM1370.9 27.24C1370.9 28.392 1371.26 29.3573 1371.99 30.136C1372.72 30.9147 1373.6 31.304 1374.65 31.304C1375.69 31.304 1376.58 30.9147 1377.3 30.136C1378.03 29.3573 1378.39 28.392 1378.39 27.24C1378.39 26.1413 1378.03 25.2187 1377.3 24.472C1376.58 23.7147 1375.69 23.336 1374.65 23.336C1373.6 23.336 1372.72 23.7147 1371.99 24.472C1371.26 25.2187 1370.9 26.1413 1370.9 27.24ZM1381.95 27.272C1381.95 25.608 1382.5 24.2213 1383.59 23.112C1384.69 22.0027 1386.09 21.448 1387.79 21.448C1389.51 21.448 1390.91 21.9653 1391.98 23L1390.99 24.536C1390.57 24.184 1390.08 23.896 1389.51 23.672C1388.96 23.448 1388.42 23.336 1387.88 23.336C1386.69 23.336 1385.75 23.7093 1385.08 24.456C1384.41 25.2027 1384.07 26.1307 1384.07 27.24C1384.07 28.36 1384.42 29.32 1385.1 30.12C1385.78 30.9093 1386.71 31.304 1387.9 31.304C1389.11 31.304 1390.21 30.824 1391.19 29.864L1392.28 31.352C1391.08 32.5787 1389.59 33.192 1387.82 33.192C1386.06 33.192 1384.64 32.632 1383.56 31.512C1382.49 30.392 1381.95 28.9787 1381.95 27.272ZM1396.63 33V23.416H1392.9V21.64H1402.41V23.416H1398.68V33H1396.63ZM1403.72 32.408L1404.63 30.856C1405.11 31.2293 1405.54 31.416 1405.91 31.416C1406.41 31.416 1406.79 31.0853 1407.05 30.424L1402.6 21.64H1404.87L1407.29 26.712L1407.93 28.216H1407.96C1408.1 27.7147 1408.25 27.2187 1408.42 26.728L1410.25 21.64H1412.41L1408.9 30.616C1408.77 30.968 1408.62 31.2773 1408.47 31.544C1408.32 31.8107 1408.13 32.0773 1407.9 32.344C1407.66 32.6107 1407.38 32.8187 1407.06 32.968C1406.74 33.1173 1406.39 33.192 1405.99 33.192C1405.22 33.192 1404.47 32.9307 1403.72 32.408ZM1413.82 33V21.64H1423.02V33H1420.96V23.416H1415.89V33H1413.82ZM1429.77 33V21.64H1431.84V26.264H1433.31L1435.98 21.64H1438.22L1435.01 27.048V27.08L1438.41 33H1436.08L1433.31 28.04H1431.84V33H1429.77ZM1443.67 32.408L1444.59 30.856C1445.07 31.2293 1445.49 31.416 1445.87 31.416C1446.37 31.416 1446.75 31.0853 1447 30.424L1442.55 21.64H1444.83L1447.24 26.712L1447.88 28.216H1447.91C1448.05 27.7147 1448.21 27.2187 1448.38 26.728L1450.2 21.64H1452.36L1448.86 30.616C1448.72 30.968 1448.57 31.2773 1448.43 31.544C1448.28 31.8107 1448.08 32.0773 1447.85 32.344C1447.61 32.6107 1447.34 32.8187 1447.02 32.968C1446.7 33.1173 1446.34 33.192 1445.95 33.192C1445.18 33.192 1444.42 32.9307 1443.67 32.408ZM1456.61 28.776C1455.44 28.776 1454.57 28.4827 1454 27.896C1453.42 27.2987 1453.13 26.456 1453.13 25.368V21.64H1455.23V24.904C1455.23 26.2373 1455.87 26.904 1457.13 26.904C1458 26.904 1458.78 26.68 1459.47 26.232V21.64H1461.57V33H1459.47V28.6L1459.5 28.072H1459.47C1458.55 28.5413 1457.6 28.776 1456.61 28.776ZM1464.34 33V21.64H1471.14V23.416H1466.4V26.392H1470.22V28.168H1466.4V31.224H1471.39V33H1464.34ZM1473.45 33V21.64H1480.42V23.416H1475.51V26.04H1477.78C1478.84 26.04 1479.69 26.36 1480.34 27C1481 27.6293 1481.33 28.4773 1481.33 29.544C1481.33 30.568 1481.01 31.4 1480.36 32.04C1479.71 32.68 1478.86 33 1477.83 33H1473.45ZM1475.51 31.224H1477.46C1478.03 31.224 1478.46 31.0747 1478.77 30.776C1479.08 30.4773 1479.24 30.0667 1479.24 29.544C1479.24 29.0213 1479.08 28.6053 1478.76 28.296C1478.44 27.976 1478 27.816 1477.43 27.816H1475.51V31.224ZM1483.31 33V21.64H1485.37V26.456H1490.57V21.64H1492.62V33H1490.57V28.232H1485.37V33H1483.31ZM1504.57 33V21.64H1506.62V33H1504.57ZM1495.37 33V21.64H1497.43V25.624H1499.54C1500.6 25.624 1501.45 25.9653 1502.1 26.648C1502.77 27.32 1503.1 28.216 1503.1 29.336C1503.1 30.424 1502.77 31.3093 1502.12 31.992C1501.47 32.664 1500.63 33 1499.59 33H1495.37ZM1497.43 31.224H1499.22C1499.79 31.224 1500.23 31.0587 1500.54 30.728C1500.85 30.3867 1501 29.9227 1501 29.336C1501 28.7493 1500.84 28.28 1500.52 27.928C1500.2 27.576 1499.76 27.4 1499.19 27.4H1497.43V31.224ZM1508.95 33L1509.88 21.64H1512.07L1514.31 27.256L1514.87 28.92H1514.9C1515.11 28.2587 1515.29 27.704 1515.46 27.256L1517.7 21.64H1519.9L1520.82 33H1518.76L1518.3 26.648C1518.27 26.424 1518.26 26.168 1518.26 25.88C1518.26 25.5813 1518.27 25.3413 1518.28 25.16V24.888H1518.25C1518 25.624 1517.79 26.2107 1517.62 26.648L1515.78 31.048H1513.99L1512.15 26.648L1511.53 24.872H1511.5C1511.53 25.5547 1511.52 26.1467 1511.48 26.648L1511.02 33H1508.95ZM1526.72 33L1527.65 21.64H1529.84L1532.08 27.256L1532.64 28.92H1532.67C1532.87 28.2587 1533.06 27.704 1533.23 27.256L1535.47 21.64H1537.66L1538.59 33H1536.53L1536.06 26.648C1536.04 26.424 1536.03 26.168 1536.03 25.88C1536.03 25.5813 1536.03 25.3413 1536.05 25.16V24.888H1536.01C1535.77 25.624 1535.56 26.2107 1535.39 26.648L1533.55 31.048H1531.76L1529.92 26.648L1529.29 24.872H1529.26C1529.29 25.5547 1529.29 26.1467 1529.25 26.648L1528.78 33H1526.72ZM1539.67 33L1543.65 21.64H1545.83L1549.81 33H1547.7L1546.72 30.088H1542.74L1541.78 33H1539.67ZM1543.25 28.408H1546.21L1545.2 25.368L1544.76 23.608H1544.72C1544.55 24.3547 1544.4 24.9413 1544.28 25.368L1543.25 28.408ZM1552.96 33V23.416H1549.23V21.64H1558.74V23.416H1555.01V33H1552.96ZM1560.35 33V21.64H1567.15V23.416H1562.42V26.392H1566.24V28.168H1562.42V31.224H1567.41V33H1560.35ZM1569.46 33V21.64H1573.85C1574.91 21.64 1575.78 21.9813 1576.45 22.664C1577.13 23.3467 1577.46 24.2373 1577.46 25.336C1577.46 26.4347 1577.13 27.336 1576.45 28.04C1575.78 28.7333 1574.91 29.08 1573.85 29.08H1571.53V33H1569.46ZM1571.53 27.288H1573.46C1574.06 27.288 1574.52 27.112 1574.85 26.76C1575.2 26.408 1575.37 25.9333 1575.37 25.336C1575.37 24.7493 1575.2 24.2853 1574.85 23.944C1574.52 23.592 1574.07 23.416 1573.49 23.416H1571.53V27.288ZM1579.26 33V21.64H1581.32V28.2L1581.21 29.96H1581.24C1581.61 29.224 1581.93 28.632 1582.2 28.184L1586.49 21.64H1588.54V33H1586.49V26.456L1586.6 24.696H1586.57C1586.22 25.4213 1585.9 26.008 1585.63 26.456L1581.31 33H1579.26ZM1590.06 33L1594.04 21.64H1596.22L1600.2 33H1598.09L1597.11 30.088H1593.13L1592.17 33H1590.06ZM1593.64 28.408H1596.6L1595.59 25.368L1595.15 23.608H1595.11C1594.94 24.3547 1594.79 24.9413 1594.67 25.368L1593.64 28.408ZM1600.56 31.24C1601.41 31.1227 1602.03 30.5573 1602.42 29.544C1602.81 28.52 1603.01 26.92 1603.01 24.744V21.64H1610.03V33H1607.97V23.416H1604.98V24.776C1604.98 27.5707 1604.63 29.6507 1603.94 31.016C1603.24 32.3707 1602.12 33.0747 1600.56 33.128V31.24ZM1611.54 33L1615.53 21.64H1617.7L1621.69 33H1619.57L1618.6 30.088H1614.61L1613.65 33H1611.54ZM1615.13 28.408H1618.09L1617.08 25.368L1616.63 23.608H1616.6C1616.43 24.3547 1616.28 24.9413 1616.15 25.368L1615.13 28.408ZM1622.76 33L1623.69 21.64H1625.88L1628.12 27.256L1628.68 28.92H1628.72C1628.92 28.2587 1629.11 27.704 1629.28 27.256L1631.52 21.64H1633.71L1634.64 33H1632.57L1632.11 26.648C1632.09 26.424 1632.08 26.168 1632.08 25.88C1632.08 25.5813 1632.08 25.3413 1632.09 25.16V24.888H1632.06C1631.81 25.624 1631.61 26.2107 1631.44 26.648L1629.6 31.048H1627.8L1625.96 26.648L1625.34 24.872H1625.31C1625.34 25.5547 1625.33 26.1467 1625.29 26.648L1624.83 33H1622.76Z" fill="#666666"/>
<rect x="1670" width="212" height="55" rx="27.5" fill="#F3F6FF"/>
<path d="M1695.6 33V21.64H1704.8V33H1702.74V23.416H1697.67V33H1695.6ZM1706.88 27.24C1706.88 25.608 1707.44 24.2373 1708.56 23.128C1709.69 22.008 1711.09 21.448 1712.76 21.448C1714.42 21.448 1715.81 22.008 1716.93 23.128C1718.06 24.2373 1718.63 25.608 1718.63 27.24C1718.63 28.9147 1718.06 30.328 1716.93 31.48C1715.81 32.6213 1714.42 33.192 1712.76 33.192C1711.09 33.192 1709.69 32.6213 1708.56 31.48C1707.44 30.328 1706.88 28.9147 1706.88 27.24ZM1709.01 27.24C1709.01 28.392 1709.37 29.3573 1710.1 30.136C1710.83 30.9147 1711.71 31.304 1712.76 31.304C1713.8 31.304 1714.69 30.9147 1715.41 30.136C1716.14 29.3573 1716.5 28.392 1716.5 27.24C1716.5 26.1413 1716.14 25.2187 1715.41 24.472C1714.69 23.7147 1713.8 23.336 1712.76 23.336C1711.71 23.336 1710.83 23.7147 1710.1 24.472C1709.37 25.2187 1709.01 26.1413 1709.01 27.24ZM1720.28 33L1721.21 21.64H1723.4L1725.64 27.256L1726.2 28.92H1726.23C1726.43 28.2587 1726.62 27.704 1726.79 27.256L1729.03 21.64H1731.22L1732.15 33H1730.09L1729.62 26.648C1729.6 26.424 1729.59 26.168 1729.59 25.88C1729.59 25.5813 1729.6 25.3413 1729.61 25.16V24.888H1729.58C1729.33 25.624 1729.12 26.2107 1728.95 26.648L1727.11 31.048H1725.32L1723.48 26.648L1722.86 24.872H1722.82C1722.86 25.5547 1722.85 26.1467 1722.81 26.648L1722.34 33H1720.28ZM1733.81 27.24C1733.81 25.608 1734.37 24.2373 1735.49 23.128C1736.62 22.008 1738.01 21.448 1739.68 21.448C1741.34 21.448 1742.73 22.008 1743.85 23.128C1744.98 24.2373 1745.55 25.608 1745.55 27.24C1745.55 28.9147 1744.98 30.328 1743.85 31.48C1742.73 32.6213 1741.34 33.192 1739.68 33.192C1738.01 33.192 1736.62 32.6213 1735.49 31.48C1734.37 30.328 1733.81 28.9147 1733.81 27.24ZM1735.93 27.24C1735.93 28.392 1736.3 29.3573 1737.02 30.136C1737.75 30.9147 1738.63 31.304 1739.68 31.304C1740.72 31.304 1741.61 30.9147 1742.33 30.136C1743.06 29.3573 1743.42 28.392 1743.42 27.24C1743.42 26.1413 1743.06 25.2187 1742.33 24.472C1741.61 23.7147 1740.72 23.336 1739.68 23.336C1738.63 23.336 1737.75 23.7147 1737.02 24.472C1736.3 25.2187 1735.93 26.1413 1735.93 27.24ZM1747.63 33V21.64H1749.7V31.224H1753.36V21.64H1755.43V31.224H1759.09V21.64H1761.14V31.224H1762.55V35.24H1760.69V33H1747.63ZM1764.48 33V21.64H1766.54V25.624H1768.77C1769.81 25.624 1770.66 25.9653 1771.33 26.648C1771.99 27.32 1772.32 28.216 1772.32 29.336C1772.32 30.424 1771.99 31.3093 1771.34 31.992C1770.69 32.664 1769.84 33 1768.8 33H1764.48ZM1766.54 31.224H1768.43C1768.99 31.224 1769.43 31.0587 1769.74 30.728C1770.06 30.3867 1770.22 29.9227 1770.22 29.336C1770.22 28.7493 1770.06 28.28 1769.73 27.928C1769.41 27.576 1768.96 27.4 1768.4 27.4H1766.54V31.224ZM1778.12 33V21.64H1780.18V26.264H1781.65L1784.33 21.64H1786.57L1783.35 27.048V27.08L1786.76 33H1784.42L1781.65 28.04H1780.18V33H1778.12ZM1788.02 32.408L1788.93 30.856C1789.41 31.2293 1789.84 31.416 1790.21 31.416C1790.71 31.416 1791.09 31.0853 1791.35 30.424L1786.9 21.64H1789.17L1791.59 26.712L1792.23 28.216H1792.26C1792.4 27.7147 1792.55 27.2187 1792.72 26.728L1794.55 21.64H1796.71L1793.2 30.616C1793.06 30.968 1792.92 31.2773 1792.77 31.544C1792.62 31.8107 1792.43 32.0773 1792.19 32.344C1791.96 32.6107 1791.68 32.8187 1791.36 32.968C1791.04 33.1173 1790.68 33.192 1790.29 33.192C1789.52 33.192 1788.76 32.9307 1788.02 32.408ZM1798.12 33V21.64H1802.5C1803.57 21.64 1804.44 21.9813 1805.11 22.664C1805.78 23.3467 1806.12 24.2373 1806.12 25.336C1806.12 26.4347 1805.78 27.336 1805.11 28.04C1804.44 28.7333 1803.57 29.08 1802.5 29.08H1800.18V33H1798.12ZM1800.18 27.288H1802.12C1802.72 27.288 1803.18 27.112 1803.51 26.76C1803.85 26.408 1804.02 25.9333 1804.02 25.336C1804.02 24.7493 1803.85 24.2853 1803.51 23.944C1803.18 23.592 1802.73 23.416 1802.15 23.416H1800.18V27.288ZM1806.09 33L1810.07 21.64H1812.25L1816.23 33H1814.12L1813.14 30.088H1809.16L1808.2 33H1806.09ZM1809.67 28.408H1812.63L1811.62 25.368L1811.18 23.608H1811.14C1810.97 24.3547 1810.82 24.9413 1810.7 25.368L1809.67 28.408ZM1819.38 33V23.416H1815.65V21.64H1825.16V23.416H1821.43V33H1819.38ZM1825.7 27.24C1825.7 25.608 1826.26 24.2373 1827.38 23.128C1828.51 22.008 1829.9 21.448 1831.57 21.448C1833.23 21.448 1834.62 22.008 1835.74 23.128C1836.87 24.2373 1837.44 25.608 1837.44 27.24C1837.44 28.9147 1836.87 30.328 1835.74 31.48C1834.62 32.6213 1833.23 33.192 1831.57 33.192C1829.9 33.192 1828.51 32.6213 1827.38 31.48C1826.26 30.328 1825.7 28.9147 1825.7 27.24ZM1827.82 27.24C1827.82 28.392 1828.19 29.3573 1828.91 30.136C1829.64 30.9147 1830.52 31.304 1831.57 31.304C1832.61 31.304 1833.5 30.9147 1834.22 30.136C1834.95 29.3573 1835.31 28.392 1835.31 27.24C1835.31 26.1413 1834.95 25.2187 1834.22 24.472C1833.5 23.7147 1832.61 23.336 1831.57 23.336C1830.52 23.336 1829.64 23.7147 1828.91 24.472C1828.19 25.2187 1827.82 26.1413 1827.82 27.24ZM1839.52 33V21.64H1843.91C1844.98 21.64 1845.84 21.9813 1846.52 22.664C1847.19 23.3467 1847.52 24.2373 1847.52 25.336C1847.52 26.4347 1847.19 27.336 1846.52 28.04C1845.84 28.7333 1844.98 29.08 1843.91 29.08H1841.59V33H1839.52ZM1841.59 27.288H1843.52C1844.12 27.288 1844.59 27.112 1844.92 26.76C1845.26 26.408 1845.43 25.9333 1845.43 25.336C1845.43 24.7493 1845.26 24.2853 1844.92 23.944C1844.59 23.592 1844.13 23.416 1843.56 23.416H1841.59V27.288ZM1847.5 33L1851.48 21.64H1853.66L1857.64 33H1855.53L1854.55 30.088H1850.57L1849.61 33H1847.5ZM1851.08 28.408H1854.04L1853.03 25.368L1852.58 23.608H1852.55C1852.38 24.3547 1852.23 24.9413 1852.1 25.368L1851.08 28.408Z" fill="#005DFF"/>
</svg>
